<?xml version="1.0" encoding="utf-8"?>
<!-- Generator: Adobe Illustrator 24.2.1, SVG Export Plug-In . SVG Version: 6.00 Build 0)  -->
<svg version="1.1" id="Camada_1" xmlns="http://www.w3.org/2000/svg" xmlns:xlink="http://www.w3.org/1999/xlink" x="0px" y="0px"
	 viewBox="0 0 500 500" style="enable-background:new 0 0 500 500;" xml:space="preserve">
<style type="text/css">
	.st0{display:none;}
	.st1{display:inline;fill:#F5F5F5;}
	.st2{fill:#FAFAFA;}
	.st3{fill-rule:evenodd;clip-rule:evenodd;fill:#E0E0E0;}
	.st4{fill-rule:evenodd;clip-rule:evenodd;fill:#F5F5F5;}
	.st5{fill-rule:evenodd;clip-rule:evenodd;fill:#EBEBEB;}
	.st6{fill:#263238;}
	.st7{fill:#00E6FF;}
	.st8{opacity:0.2;}
	.st9{fill:#FFFFFF;}
	.st10{fill:#EBEBEB;}
	.st11{fill:#E0E0E0;}
	.st12{fill:#F5F5F5;}
	.st13{fill:#455A64;}
	.st14{fill:#FFBE9D;}
	.st15{fill:#EB996E;}
	.st16{opacity:0.3;}
</style>
<g id="Background_Simple" class="st0">
	<path class="st1" d="M409,78l-2.1-3.4c-17.9-29.1-50.1-46.6-84.2-44.5c-4.4,0.3-8.7,0.9-13,1.8c-31,6.5-57.9,29.7-69.1,59.3
		c-6.6,17.4-8.4,37.4-20.9,51.3c-16.2,18-43.7,18.6-67.9,17.8c-24.2-0.8-51.8-0.1-67.9,17.9c-10.1,11.3-13.3,27.4-12.5,42.5
		c2.2,40.1,30.4,75.9,66.4,93.8c36,17.8,78.3,19.4,117.7,11.6c55.2-11,107.6-41.1,139.2-87.7S434.2,128.2,409,78z"/>
	<path class="st1" d="M188.1,88.8c-6-6.8-18.5-10.6-27.6-9.5l0,0c-8.3-0.2-16.6,3.7-21.7,10.2c-5.1,6.5-6.9,15.5-4.7,23.5
		c3.4,12.3,15.4,20.7,27.9,23.1c8,1.5,16.8,0.8,23.4-4c6.4-4.7,9.8-12.7,10.6-20.6C197,102.4,194.1,95.6,188.1,88.8z"/>
</g>
<g id="Background_Complete">
	<g>
		<g>
			<g>
				<path class="st2" d="M110.6,177.4c-1,0-2.2,0-3.6,0c-0.4,0-0.7,0-1.1,0.1c-0.3,0.1-0.7,0.4-0.8,0.7c-0.1,0.2-0.2,0.4-0.2,0.6
					c0,0.2,0,0.4,0,0.6s0,0.4,0,0.7c0,0.2,0,0.4,0,0.7c-0.1,0.4-0.4,0.9-0.8,1.1c-0.2,0.1-0.4,0.2-0.7,0.2c-0.3,0-0.5,0-0.8,0
					c-1,0-2.1,0-3.2,0c-2.2,0-4.6,0-7.2,0c-0.7,0-1.3,0-2,0c-0.2,0-0.3,0-0.5,0c-0.2,0-0.4,0-0.5-0.1c-0.3-0.1-0.7-0.3-0.9-0.5
					c-0.2-0.3-0.4-0.6-0.4-1c0-0.2,0-0.4,0-0.5c0-0.2,0-0.4,0-0.5c0-0.4,0-0.7-0.1-1c-0.1-0.3-0.3-0.6-0.6-0.8
					c-0.3-0.2-0.7-0.3-1-0.3c-0.4,0-0.7,0-1.1,0c-0.8,0-1.5,0-2.3,0c-1.6,0-3.2,0-4.8,0c-0.8,0-1.6,0.1-2.4,0.5
					c-0.8,0.3-1.4,0.8-2,1.5c-0.5,0.7-0.9,1.4-1.1,2.3c-0.1,0.2-0.1,0.4-0.1,0.6c0,0.2,0,0.4,0,0.5v35.6c0,0.5,0,0.9,0,1.4
					c0,1.4,0,2.9,0,4.4v46.3c0,0.6,0,1.2,0.2,1.7c0.4,1.2,1.1,2.2,2.1,2.9c1,0.7,2.3,1,3.5,1c1.2,0,2.5,0,3.7,0c2.5,0,4.9,0,7.3,0
					c4.9,0,9.7,0,14.4,0c2.4,0,4.7,0,7,0c1.2,0,2.3,0,3.4,0c1.1-0.1,2.2-0.5,3.1-1.2c0.4-0.4,0.8-0.8,1.1-1.2s0.5-1,0.7-1.5
					c0.2-0.5,0.2-1.1,0.2-1.6c0-0.6,0-1.1,0-1.7c0-2.2,0-4.4,0-6.5c0-17.2,0-32.8,0-45.8c0-13,0-23.6,0-30.9c0-0.9,0-1.8,0-2.6
					c0-0.8-0.1-1.6-0.4-2.2c-0.3-0.7-0.6-1.2-1-1.6c-0.4-0.4-0.8-0.8-1.2-1c-0.8-0.5-1.6-0.7-2.1-0.7c-0.2-0.1-0.4,0-0.6-0.1
					c-0.1,0-0.2,0-0.2,0s-0.3,0-0.7,0C112.3,177.4,111.6,177.4,110.6,177.4z"/>
			</g>
		</g>
	</g>
	<g>
		<g>
			<g>
				<path class="st2" d="M420.2,177.4c-1,0-2.2,0-3.6,0c-0.4,0-0.7,0-1.1,0.1c-0.3,0.1-0.7,0.4-0.8,0.7c-0.1,0.2-0.2,0.4-0.2,0.6
					c0,0.2,0,0.4,0,0.6s0,0.4,0,0.7c0,0.2,0,0.4,0,0.7c-0.1,0.4-0.4,0.9-0.8,1.1c-0.2,0.1-0.4,0.2-0.7,0.2c-0.3,0-0.5,0-0.8,0
					c-1,0-2.1,0-3.2,0c-2.2,0-4.6,0-7.2,0c-0.7,0-1.3,0-2,0c-0.2,0-0.3,0-0.5,0c-0.2,0-0.4,0-0.5-0.1c-0.3-0.1-0.7-0.3-0.9-0.5
					c-0.2-0.3-0.4-0.6-0.4-1c0-0.2,0-0.4,0-0.5c0-0.2,0-0.4,0-0.5c0-0.4,0-0.7-0.1-1c-0.1-0.3-0.3-0.6-0.6-0.8
					c-0.3-0.2-0.7-0.3-1-0.3c-0.4,0-0.7,0-1.1,0c-0.8,0-1.5,0-2.3,0c-1.6,0-3.2,0-4.8,0c-0.8,0-1.6,0.1-2.4,0.5
					c-0.8,0.3-1.4,0.8-2,1.5c-0.5,0.7-0.9,1.4-1.1,2.3c-0.1,0.2-0.1,0.4-0.1,0.6c0,0.2,0,0.4,0,0.5v35.6c0,0.5,0,0.9,0,1.4
					c0,1.4,0,2.9,0,4.4v46.3c0,0.6,0,1.2,0.2,1.7c0.4,1.2,1.1,2.2,2.1,2.9c1,0.7,2.3,1,3.5,1c1.2,0,2.5,0,3.7,0c2.5,0,4.9,0,7.3,0
					c4.9,0,9.7,0,14.4,0c2.4,0,4.7,0,7,0c1.2,0,2.3,0,3.4,0c1.1-0.1,2.2-0.5,3.1-1.2c0.4-0.4,0.8-0.8,1.1-1.2s0.5-1,0.7-1.5
					c0.2-0.5,0.2-1.1,0.2-1.6c0-0.6,0-1.1,0-1.7c0-2.2,0-4.4,0-6.5c0-17.2,0-32.8,0-45.8c0-13,0-23.6,0-30.9c0-0.9,0-1.8,0-2.6
					c0-0.8-0.1-1.6-0.4-2.2c-0.3-0.7-0.6-1.2-1-1.6c-0.4-0.4-0.8-0.8-1.2-1c-0.8-0.5-1.6-0.7-2.1-0.7c-0.2-0.1-0.4,0-0.6-0.1
					c-0.1,0-0.2,0-0.2,0s-0.3,0-0.7,0C421.9,177.4,421.1,177.4,420.2,177.4z"/>
			</g>
		</g>
	</g>
	<g>
		<g>
			<g>
				<g>
					<g>
						<path class="st3" d="M218.1,107.4c0.3,1.6,0.3,3.2,0.1,4.7l3.6,2.4l-2.6,6.8l-4.3-0.6c-0.9,1.3-2,2.4-3.3,3.4l0.8,4.3
							l-6.6,2.9l-2.6-3.5c-1.6,0.3-3.2,0.3-4.7,0.1l-2.4,3.6l-6.8-2.6l0.6-4.3c-1.3-0.9-2.4-2-3.4-3.3l-4.3,0.8l-2.9-6.6l3.5-2.6
							c-0.3-1.6-0.3-3.2-0.1-4.7l-3.6-2.4l2.6-6.8l4.3,0.6c0.9-1.3,2-2.4,3.3-3.4l-0.8-4.3L195,89l2.6,3.5c1.6-0.3,3.2-0.3,4.7-0.1
							l2.4-3.6l6.8,2.6l-0.6,4.3c1.3,0.9,2.4,2,3.4,3.3l4.3-0.8l2.9,6.6L218.1,107.4L218.1,107.4z M207.7,107.3
							c-1.7-3.9-6.3-5.7-10.3-4c-3.9,1.7-5.7,6.3-4,10.3c1.7,3.9,6.3,5.7,10.3,4C207.6,115.9,209.4,111.3,207.7,107.3z"/>
					</g>
				</g>
			</g>
		</g>
	</g>
	<g>
		<g>
			<g>
				<g>
					<g>
						<path class="st4" d="M212.8,68c0.2,1,0.2,2.1,0.1,3.1l2.4,1.6l-1.7,4.5l-2.9-0.4c-0.6,0.8-1.3,1.6-2.2,2.3l0.6,2.8l-4.4,1.9
							l-1.7-2.3c-1,0.2-2.1,0.2-3.1,0.1l-1.6,2.4l-4.5-1.7l0.4-2.9c-0.8-0.6-1.6-1.3-2.3-2.2l-2.8,0.6l-1.9-4.4l2.3-1.7
							c-0.2-1-0.2-2.1-0.1-3.1L187,67l1.7-4.5l2.9,0.4c0.6-0.8,1.3-1.6,2.2-2.3l-0.6-2.8l4.4-1.9l1.7,2.3c1-0.2,2.1-0.2,3.1-0.1
							l1.6-2.4l4.5,1.7l-0.4,2.9c0.8,0.6,1.6,1.3,2.3,2.2l2.8-0.6l1.9,4.4L212.8,68L212.8,68z M205.9,68c-1.2-2.6-4.2-3.8-6.8-2.6
							c-2.6,1.2-3.8,4.2-2.6,6.8c1.2,2.6,4.2,3.8,6.8,2.6C205.9,73.7,207.1,70.6,205.9,68z"/>
					</g>
				</g>
			</g>
		</g>
	</g>
	<g>
		<g>
			<g>
				<g>
					<g>
						<path class="st5" d="M241.9,89.8c0.1,0.9,0.2,1.9,0.1,2.8l2.2,1.5l-1.6,4l-2.6-0.4c-0.5,0.8-1.2,1.4-1.9,2.1l0.5,2.6l-4,1.8
							l-1.6-2.1c-0.9,0.1-1.9,0.2-2.8,0.1l-1.5,2.2l-4-1.6l0.4-2.6c-0.8-0.5-1.4-1.2-2.1-1.9l-2.6,0.5l-1.8-4l2.1-1.6
							c-0.1-0.9-0.2-1.9-0.1-2.8l-2.2-1.5l1.6-4l2.6,0.4c0.5-0.8,1.2-1.4,1.9-2.1l-0.5-2.6l4-1.8l1.6,2.1c0.9-0.1,1.9-0.2,2.8-0.1
							l1.5-2.2l4,1.6l-0.4,2.6c0.8,0.5,1.4,1.2,2.1,1.9l2.6-0.5l1.8,4L241.9,89.8L241.9,89.8z M235.7,89.8c-1-2.4-3.8-3.4-6.1-2.4
							c-2.4,1-3.4,3.8-2.4,6.1c1,2.4,3.8,3.4,6.1,2.4C235.7,94.9,236.8,92.1,235.7,89.8z"/>
					</g>
				</g>
			</g>
		</g>
	</g>
</g>
<g id="Screens">
	<g>
		<g>
			<g>
				<g>
					<path class="st2" d="M159,140.4c-1.5,0-3.4,0-5.7,0c-0.6,0-1.2-0.1-1.7,0.2c-0.6,0.2-1,0.6-1.4,1.2c-0.2,0.3-0.3,0.6-0.3,0.9
						c-0.1,0.3,0,0.7,0,1c0,0.3,0,0.7,0,1s0,0.7-0.1,1.1c-0.1,0.7-0.6,1.4-1.3,1.8c-0.3,0.2-0.7,0.3-1.1,0.4c-0.4,0-0.8,0-1.2,0
						c-1.6,0-3.3,0-5.1,0c-3.6,0-7.4,0-11.6,0c-1,0-2.1,0-3.2,0c-0.3,0-0.5,0-0.8,0c-0.3,0-0.6,0-0.8-0.1c-0.5-0.1-1-0.4-1.4-0.9
						c-0.4-0.4-0.6-1-0.7-1.5c0-0.3,0-0.6,0-0.9c0-0.3,0-0.6,0-0.9c0-0.6,0-1.1-0.2-1.7c-0.2-0.5-0.5-1-1-1.3
						c-0.5-0.3-1-0.5-1.6-0.4c-0.6,0-1.2,0-1.8,0c-1.2,0-2.4,0-3.7,0c-2.5,0-5,0-7.6,0c-1.3,0-2.6,0.2-3.8,0.7
						c-1.2,0.5-2.3,1.3-3.2,2.4s-1.5,2.3-1.8,3.6c-0.1,0.3-0.1,0.7-0.2,1c0,0.3,0,0.6,0,0.9v56.8c0,0.8,0,1.5,0,2.3c0,2.3,0,4.6,0,7
						v73.8c0,0.9,0.1,1.9,0.4,2.8c0.6,1.9,1.8,3.5,3.4,4.6c1.6,1.1,3.6,1.6,5.6,1.5c2,0,4,0,5.9,0c3.9,0,7.8,0,11.7,0
						c7.8,0,15.4,0,22.9,0c3.8,0,7.5,0,11.2,0c1.8,0,3.7,0,5.5,0c1.8-0.1,3.5-0.8,4.9-1.9c0.7-0.6,1.3-1.2,1.8-2
						c0.5-0.7,0.8-1.6,1.1-2.4c0.3-0.8,0.3-1.7,0.3-2.6c0-0.9,0-1.8,0-2.6c0-3.5,0-7,0-10.4c0-27.5,0-52.3,0-73.1
						c0-20.8,0-37.6,0.1-49.3c0-1.5,0-2.8,0-4.1c0-1.3-0.2-2.5-0.6-3.5c-0.4-1-1-1.9-1.6-2.6c-0.6-0.7-1.3-1.2-2-1.6
						c-1.3-0.8-2.5-1-3.3-1.2c-0.4-0.1-0.7-0.1-0.9-0.1c-0.2,0-0.3,0-0.3,0s-0.4,0-1.2,0C161.7,140.4,160.5,140.4,159,140.4z"/>
				</g>
			</g>
		</g>
		<g>
			<g>
				<g>
					<g>
						<g>
							<g>
								<g>
									<g>
										<g>
											<g>
												<g>
													<g>
														<g>
															<path class="st6" d="M163.8,140.5c0,0,0.1,0,0.3,0c0.2,0,0.5,0,0.9,0.1c0.8,0.1,2,0.3,3.3,1.1c0.7,0.4,1.3,0.9,2,1.6
																c0.6,0.7,1.2,1.6,1.7,2.6c0.4,1,0.7,2.3,0.7,3.5c0,1.3,0,2.7,0,4.1c0,11.6,0,28.5,0,49.3c0,20.8,0,45.6,0,73.1
																c0,3.4,0,6.9,0,10.4c0,0.9,0,1.8,0,2.6c0,0.9-0.1,1.8-0.3,2.7c-0.3,0.9-0.6,1.7-1.1,2.5c-0.5,0.8-1.1,1.4-1.8,2
																c-1.4,1.1-3.2,1.9-5,2c-1.8,0.1-3.7,0-5.5,0c-3.7,0-7.4,0-11.1,0c-7.5,0-15.1,0-22.8,0c-3.9,0-7.8,0-11.7,0
																c-2,0-3.9,0-5.9,0c-2,0.1-4-0.4-5.7-1.6c-1.7-1.1-2.9-2.9-3.5-4.8c-0.3-1-0.4-2-0.4-3s0-2,0-2.9c0-3.9,0-7.8,0-11.7
																c0-7.7,0-15.3,0-22.8c0-15,0-29.4,0-43.2c0-13.7,0-26.8,0-39.1c0-6.1,0-12,0-17.7c0-0.7,0-1.4,0-2.1
																c0-0.4,0-0.7,0.1-1.1c0.1-0.3,0.1-0.7,0.2-1c0.3-1.4,1-2.6,1.8-3.7c0.9-1,2-1.9,3.2-2.4c1.2-0.6,2.6-0.7,3.9-0.7
																c2.6,0,5.1,0,7.6,0c1.2,0,2.5,0,3.7,0c0.6,0,1.2,0,1.8,0c0.6,0,1.2,0.1,1.7,0.5c0.5,0.3,0.9,0.8,1.1,1.4
																c0.2,0.6,0.2,1.2,0.2,1.7c0,0.3,0,0.6,0,0.9s0,0.6,0,0.8c0.1,0.5,0.3,1.1,0.7,1.5c0.3,0.4,0.8,0.7,1.3,0.8
																c0.3,0.1,0.5,0.1,0.8,0.1c0.3,0,0.5,0,0.8,0c1.1,0,2.1,0,3.2,0c4.1,0,8,0,11.5,0c1.8,0,3.5,0,5.1,0
																c0.4,0,0.8,0,1.2,0c0.4,0,0.7-0.2,1.1-0.4c0.6-0.4,1.1-1.1,1.2-1.8c0.1-0.4,0.1-0.7,0.1-1.1c0-0.4,0-0.7,0-1
																c0-0.3,0-0.7,0-1s0.2-0.7,0.3-0.9c0.3-0.6,0.8-1,1.4-1.2c0.6-0.2,1.2-0.2,1.7-0.2c2.2,0,4.1,0,5.7,0
																c1.5,0,2.7,0,3.5,0C163.4,140.5,163.8,140.5,163.8,140.5s-0.4,0-1.2,0s-2,0-3.5,0s-3.4,0-5.7,0
																c-0.6,0-1.2-0.1-1.7,0.2c-0.6,0.2-1,0.6-1.3,1.2c-0.1,0.3-0.3,0.6-0.3,0.9c-0.1,0.3,0,0.7,0,1c0,0.3,0,0.7,0,1
																c0,0.4,0,0.7-0.1,1.1c-0.1,0.7-0.6,1.4-1.3,1.8c-0.3,0.2-0.7,0.3-1.1,0.4c-0.4,0-0.8,0-1.2,0c-1.6,0-3.3,0-5.1,0
																c-3.5,0-7.4,0-11.5,0c-1,0-2.1,0-3.2,0c-0.3,0-0.5,0-0.8,0c-0.3,0-0.6,0-0.8-0.1c-0.5-0.1-1-0.4-1.4-0.9
																c-0.4-0.4-0.6-1-0.7-1.5c0-0.3,0-0.6,0-0.9s0-0.6,0-0.9c0-0.6,0-1.1-0.2-1.7c-0.2-0.5-0.5-1-1-1.3
																c-0.5-0.3-1-0.5-1.6-0.4c-0.6,0-1.2,0-1.8,0c-1.2,0-2.4,0-3.7,0c-2.5,0-5,0-7.6,0c-1.3,0-2.6,0.2-3.8,0.7
																c-1.2,0.5-2.3,1.3-3.2,2.4c-0.9,1-1.5,2.3-1.8,3.6c-0.1,0.3-0.1,0.7-0.2,1c0,0.3,0,0.7,0,1c0,0.7,0,1.4,0,2.1
																c0,5.7,0,11.6,0,17.7c0,12.2,0,25.3,0,39.1c0,13.7,0,28.2,0,43.2c0,7.5,0,15.1,0,22.8c0,3.9,0,7.8,0,11.7
																c0,1,0,2,0,2.9c0,1,0.1,2,0.4,2.9c0.6,1.9,1.8,3.5,3.4,4.6c1.6,1.1,3.6,1.6,5.5,1.5c2,0,3.9,0,5.9,0
																c3.9,0,7.8,0,11.7,0c7.7,0,15.3,0,22.8,0c3.7,0,7.4,0,11.1,0c1.8,0,3.7,0,5.5,0c1.8-0.1,3.5-0.8,4.9-1.9
																c0.7-0.6,1.3-1.2,1.8-2s0.8-1.6,1.1-2.4c0.3-0.8,0.3-1.7,0.3-2.6c0-0.9,0-1.8,0-2.6c0-3.5,0-7,0-10.4
																c0-27.5,0-52.3,0-73.1c0-20.8,0-37.6,0.1-49.3c0-1.5,0-2.8,0-4.1c0-1.3-0.2-2.5-0.6-3.5c-0.4-1-1-1.9-1.6-2.6
																c-0.6-0.7-1.3-1.2-2-1.6c-1.3-0.8-2.5-1-3.3-1.2c-0.4-0.1-0.7-0.1-0.9-0.1C163.9,140.5,163.8,140.5,163.8,140.5z"/>
														</g>
													</g>
												</g>
											</g>
										</g>
									</g>
								</g>
							</g>
						</g>
					</g>
					<g>
						<g>
							<g>
								<g>
									<g>
										<g>
											<g>
												<path class="st6" d="M165.4,154.6c0,0-1.4,0.1-3.2,0.1s-3.2,0-3.2,0c0,0,1.4-0.1,3.2-0.1
													C164,154.6,165.4,154.6,165.4,154.6z"/>
											</g>
										</g>
									</g>
								</g>
							</g>
						</g>
						<g>
							<g>
								<g>
									<g>
										<g>
											<g>
												<path class="st6" d="M165.5,156.3c0,0-1.4,0.1-3.2,0.1c-1.8,0-3.2,0-3.2,0c0,0,1.4-0.1,3.2-0.1
													C164,156.2,165.5,156.2,165.5,156.3z"/>
											</g>
										</g>
									</g>
								</g>
							</g>
						</g>
						<g>
							<g>
								<g>
									<g>
										<g>
											<g>
												<path class="st6" d="M165.5,157.9c0,0-1.4,0.1-3.2,0.1c-1.8,0-3.2,0-3.2,0c0,0,1.4-0.1,3.2-0.1
													C164,157.9,165.5,157.9,165.5,157.9z"/>
											</g>
										</g>
									</g>
								</g>
							</g>
						</g>
					</g>
					<g>
						<g>
							<g>
								<g>
									<g>
										<g>
											<path class="st6" d="M106.8,159.8c0,0,0,0,0.1,0c0.1,0,0.2,0,0.4,0c0.4,0,0.8,0,1.4,0l0,0c0-0.3,0-0.6,0-1
												c0-0.2,0-0.4,0-0.6c0-0.2,0.2-0.4,0.5-0.4c0.2,0,0.4,0,0.7,0c0.2,0,0.5,0.3,0.4,0.5c0,0.5,0,1,0,1.5l-0.1-0.1
												c0.6,0,1.1,0,1.7,0l-0.1,0.1c0-0.7,0-1.4,0-2.2c0-0.2,0-0.4,0-0.6c0-0.2-0.1-0.3-0.2-0.4c-0.3-0.3-0.5-0.5-0.8-0.7
												c-0.2-0.2-0.5-0.5-0.7-0.7c-0.1-0.1-0.2-0.2-0.4-0.4c-0.1-0.1-0.2-0.2-0.4-0.3c-0.1,0-0.3,0-0.4,0.1
												c-0.1,0.1-0.2,0.2-0.3,0.3c-0.2,0.2-0.4,0.4-0.6,0.6c-0.4,0.4-0.8,0.8-1.1,1.1c-0.1,0.2-0.1,0.4-0.1,0.7
												c0,0.2,0,0.4,0,0.6c0,0.4,0,0.7,0,1c0,0.3,0,0.5,0,0.6C106.8,159.7,106.8,159.8,106.8,159.8c0,0,0-0.1,0-0.2
												c0-0.2,0-0.4,0-0.6c0-0.3,0-0.6,0-1c0-0.2,0-0.4,0-0.6c0-0.1,0-0.2,0-0.3c0-0.1,0-0.2,0.1-0.4c0.3-0.4,0.7-0.7,1.1-1.2
												c0.2-0.2,0.4-0.4,0.6-0.6c0.1-0.1,0.2-0.2,0.3-0.3c0.1-0.1,0.3-0.1,0.5-0.1c0.2,0,0.3,0.2,0.4,0.3
												c0.1,0.1,0.2,0.2,0.4,0.4c0.2,0.2,0.5,0.5,0.7,0.7c0.2,0.2,0.5,0.5,0.8,0.7c0.1,0.1,0.1,0.1,0.2,0.2
												c0.1,0.1,0.1,0.2,0.1,0.3c0,0.2,0,0.4,0,0.6c0,0.7,0,1.5,0,2.2v0.1h-0.1c-0.6,0-1.2,0-1.7,0h-0.1v-0.1c0-0.5,0-1,0-1.5
												c0-0.2-0.2-0.4-0.4-0.4c-0.2,0-0.4,0-0.6,0c-0.2,0-0.3,0.2-0.4,0.3c0,0.2,0,0.4,0,0.6c0,0.4,0,0.7,0,1v0h0
												c-0.6,0-1,0-1.4,0C107.1,159.8,107,159.8,106.8,159.8C106.9,159.8,106.8,159.8,106.8,159.8z"/>
										</g>
									</g>
								</g>
							</g>
						</g>
					</g>
				</g>
				<g>
					<g>
						<g>
							<path class="st6" d="M150.6,217.6c0,0.2-6.9,0.4-15.4,0.4c-8.5,0-15.4-0.2-15.4-0.4s6.9-0.4,15.4-0.4
								C143.7,217.1,150.6,217.3,150.6,217.6z"/>
						</g>
					</g>
				</g>
			</g>
			<g>
				<g>
					<g>
						<g>
							
								<rect x="120.2" y="172.3" transform="matrix(5.569325e-03 -1 1 5.569325e-03 -57.8014 326.4)" class="st7" width="29.9" height="39.8"/>
						</g>
					</g>
				</g>
				<g>
					<g>
						<g>
							<polygon class="st7" points="115.2,207.1 129.2,188.6 137.8,200.3 143.7,194.1 155,207.3 							"/>
						</g>
					</g>
				</g>
				<g>
					<g>
						<g>
							<g>
								<g>
									<path class="st7" d="M141.5,186.4c0,1.7-1.4,3.1-3.2,3.1c-1.7,0-3.1-1.4-3.1-3.2c0-1.7,1.4-3.1,3.2-3.1
										C140.1,183.2,141.5,184.6,141.5,186.4z"/>
								</g>
							</g>
						</g>
					</g>
				</g>
				<g class="st8">
					<g>
						<g>
							<polygon points="115.2,207.1 129.2,188.6 137.8,200.3 143.7,194.1 155,207.3 							"/>
						</g>
					</g>
				</g>
				<g class="st8">
					<g>
						<g>
							<g>
								<g>
									<path d="M141.5,186.4c0,1.7-1.4,3.1-3.2,3.1c-1.7,0-3.1-1.4-3.1-3.2c0-1.7,1.4-3.1,3.2-3.1
										C140.1,183.2,141.5,184.6,141.5,186.4z"/>
								</g>
							</g>
						</g>
					</g>
				</g>
			</g>
			<g>
				<g>
					<g>
						<path class="st6" d="M162.6,228.6c0,0.2-12.2,0.4-27.3,0.4s-27.3-0.2-27.3-0.4s12.2-0.4,27.3-0.4
							C150.3,228.2,162.6,228.4,162.6,228.6z"/>
					</g>
				</g>
			</g>
			<g>
				<g>
					<g>
						<path class="st6" d="M162.6,236.2c0,0.2-12.2,0.4-27.3,0.4s-27.3-0.2-27.3-0.4s12.2-0.4,27.3-0.4
							C150.3,235.8,162.6,236,162.6,236.2z"/>
					</g>
				</g>
			</g>
			<g>
				<g>
					<g>
						<path class="st6" d="M162.6,243.9c0,0.2-12.2,0.4-27.3,0.4s-27.3-0.2-27.3-0.4s12.2-0.4,27.3-0.4
							C150.3,243.4,162.6,243.6,162.6,243.9z"/>
					</g>
				</g>
			</g>
			<g>
				<g>
					<g>
						<path class="st6" d="M162.6,251.5c0,0.2-12.2,0.4-27.3,0.4s-27.3-0.2-27.3-0.4c0-0.2,12.2-0.4,27.3-0.4
							C150.3,251,162.6,251.2,162.6,251.5z"/>
					</g>
				</g>
			</g>
			<g>
				<g>
					<g>
						<path class="st6" d="M162.6,259.1c0,0.2-12.2,0.4-27.3,0.4s-27.3-0.2-27.3-0.4c0-0.2,12.2-0.4,27.3-0.4
							C150.3,258.7,162.6,258.9,162.6,259.1z"/>
					</g>
				</g>
			</g>
			<g>
				<g>
					<g>
						<path class="st6" d="M150.8,266.1c0,0.1-1.8,0.2-4.6,0.3c-2.8,0.1-6.8,0.1-11.1,0.1c-4.3,0-8.3-0.1-11.1-0.1
							c-2.8-0.1-4.6-0.2-4.6-0.3s1.8-0.2,4.6-0.3c2.8-0.1,6.8-0.1,11.1-0.1c4.3,0,8.3,0.1,11.1,0.1
							C149.1,265.8,150.8,265.9,150.8,266.1z"/>
					</g>
				</g>
			</g>
		</g>
	</g>
	<g>
		<g>
			<g>
				<g>
					<path class="st2" d="M213.6,127.6c-1.7,0-3.8,0-6.3,0c-0.6,0-1.3-0.1-1.9,0.2c-0.6,0.2-1.2,0.7-1.5,1.3c-0.2,0.3-0.3,0.7-0.4,1
						c-0.1,0.4,0,0.7,0,1.1c0,0.4,0,0.8,0,1.2s0,0.8-0.1,1.2c-0.2,0.8-0.7,1.6-1.4,2c-0.4,0.2-0.8,0.4-1.2,0.4c-0.4,0-0.9,0-1.3,0
						c-1.8,0-3.7,0-5.7,0c-3.9,0-8.2,0-12.8,0c-1.2,0-2.3,0-3.5,0c-0.3,0-0.6,0-0.9,0c-0.3,0-0.6,0-0.9-0.1c-0.6-0.1-1.2-0.5-1.6-1
						c-0.4-0.5-0.7-1.1-0.8-1.7c0-0.3,0-0.6,0-1c0-0.3,0-0.6,0-1c0-0.6,0-1.3-0.2-1.9c-0.2-0.6-0.6-1.1-1.1-1.5
						c-0.5-0.4-1.2-0.5-1.8-0.5c-0.7,0-1.3,0-2,0c-1.3,0-2.7,0-4.1,0c-2.8,0-5.6,0-8.5,0c-1.4,0-2.9,0.2-4.3,0.8
						c-1.3,0.6-2.6,1.5-3.5,2.6c-1,1.2-1.7,2.6-2,4c-0.1,0.4-0.1,0.8-0.2,1.1c0,0.3,0,0.6,0,1v63.3c0,0.8,0,1.7,0,2.5
						c0,2.6,0,5.2,0,7.8v82.3c0,1,0.1,2.1,0.4,3.1c0.6,2.1,2,3.9,3.7,5.2c1.8,1.2,4,1.8,6.2,1.7c2.2,0,4.4,0,6.6,0c4.4,0,8.7,0,13,0
						c8.6,0,17.1,0,25.5,0c4.2,0,8.3,0,12.4,0c2,0,4.1,0,6.1,0c2-0.1,3.9-0.9,5.5-2.1c0.8-0.6,1.4-1.4,2-2.2s0.9-1.7,1.2-2.7
						c0.3-0.9,0.4-1.9,0.4-2.9c0-1,0-2,0-3c0-3.9,0-7.8,0-11.6c0-30.7,0-58.3,0-81.5c0-23.2,0-42,0.1-54.9c0-1.6,0-3.2,0-4.6
						c0-1.4-0.2-2.8-0.7-3.9c-0.5-1.2-1.1-2.1-1.8-2.9c-0.7-0.8-1.5-1.4-2.2-1.8c-1.5-0.9-2.8-1.2-3.6-1.3c-0.4-0.1-0.8-0.1-1-0.1
						c-0.2,0-0.3,0-0.3,0s-0.4,0-1.3,0C216.7,127.6,215.3,127.6,213.6,127.6z"/>
				</g>
			</g>
		</g>
		<g>
			<g>
				<g>
					<g>
						<g>
							<g>
								<g>
									<g>
										<g>
											<g>
												<g>
													<g>
														<g>
															<path class="st6" d="M218.9,127.5c0,0,0.1,0,0.3,0c0.2,0,0.6,0,1,0.1c0.9,0.1,2.2,0.4,3.7,1.3c0.7,0.4,1.5,1,2.2,1.8
																c0.7,0.8,1.4,1.7,1.9,2.9c0.5,1.2,0.7,2.5,0.7,4c0,1.4,0,3,0,4.6c0,13,0,31.7,0,54.9c0,23.2,0,50.8,0,81.5
																c0,3.8,0,7.7,0,11.6c0,1,0,2,0,3c0,1-0.1,2-0.4,3c-0.3,1-0.7,1.9-1.2,2.7c-0.6,0.8-1.2,1.6-2,2.3
																c-1.6,1.3-3.6,2.1-5.6,2.2c-2,0.1-4.1,0-6.1,0c-4.1,0-8.2,0-12.4,0c-8.3,0-16.8,0-25.5,0c-4.3,0-8.7,0-13,0
																c-2.2,0-4.4,0-6.6,0c-2.2,0.1-4.5-0.5-6.3-1.8c-1.9-1.3-3.2-3.2-3.9-5.3c-0.3-1.1-0.4-2.2-0.4-3.3c0-1.1,0-2.2,0-3.3
																c0-4.4,0-8.7,0-13c0-8.6,0-17.1,0-25.5c0-16.7,0-32.8,0-48.1c0-15.3,0-29.9,0-43.6c0-6.8,0-13.4,0-19.7
																c0-0.8,0-1.6,0-2.4c0-0.4,0-0.8,0.1-1.2c0.1-0.4,0.1-0.8,0.2-1.2c0.4-1.5,1.1-2.9,2.1-4.1c1-1.2,2.2-2.1,3.6-2.7
																c1.4-0.6,2.9-0.8,4.3-0.8c2.9,0,5.7,0,8.5,0c1.4,0,2.7,0,4.1,0c0.7,0,1.3,0,2,0c0.7,0,1.4,0.1,1.9,0.5
																c0.6,0.4,1,0.9,1.2,1.6c0.2,0.6,0.2,1.3,0.2,1.9c0,0.3,0,0.6,0,1c0,0.3,0,0.6,0,0.9c0.1,0.6,0.3,1.2,0.7,1.6
																c0.4,0.5,0.9,0.8,1.5,0.9c0.3,0.1,0.6,0.1,0.9,0.1c0.3,0,0.6,0,0.9,0c1.2,0,2.4,0,3.5,0c4.6,0,8.9,0,12.8,0
																c2,0,3.9,0,5.7,0c0.4,0,0.9,0,1.3,0c0.4-0.1,0.8-0.2,1.2-0.4c0.7-0.4,1.2-1.2,1.4-2c0.1-0.4,0.1-0.8,0.1-1.2
																c0-0.4,0-0.8,0-1.2c0-0.4,0-0.8,0.1-1.1c0.1-0.4,0.2-0.7,0.4-1c0.4-0.6,0.9-1.1,1.6-1.4c0.6-0.3,1.3-0.2,1.9-0.2
																c2.5,0,4.6,0,6.3,0c1.7,0,3,0,3.9,0C218.5,127.5,218.9,127.5,218.9,127.5s-0.4,0-1.3,0c-0.9,0-2.2,0-3.9,0
																c-1.7,0-3.8,0-6.3,0c-0.6,0-1.3-0.1-1.9,0.2c-0.6,0.2-1.2,0.7-1.5,1.3c-0.2,0.3-0.3,0.7-0.4,1c-0.1,0.4,0,0.7,0,1.1
																s0,0.8,0,1.2s0,0.8-0.1,1.2c-0.2,0.8-0.7,1.6-1.4,2c-0.4,0.2-0.8,0.4-1.2,0.4c-0.4,0-0.9,0-1.3,0c-1.8,0-3.7,0-5.7,0
																c-3.9,0-8.2,0-12.8,0c-1.2,0-2.3,0-3.5,0c-0.3,0-0.6,0-0.9,0c-0.3,0-0.6,0-0.9-0.1c-0.6-0.1-1.2-0.5-1.6-1
																c-0.4-0.5-0.7-1.1-0.8-1.7c0-0.3,0-0.6,0-1c0-0.3,0-0.6,0-1c0-0.6,0-1.3-0.2-1.9c-0.2-0.6-0.6-1.1-1.1-1.5
																c-0.5-0.4-1.2-0.5-1.8-0.5c-0.7,0-1.3,0-2,0c-1.3,0-2.7,0-4.1,0c-2.8,0-5.6,0-8.5,0c-1.4,0-2.9,0.2-4.3,0.8
																c-1.3,0.6-2.6,1.5-3.5,2.6c-1,1.2-1.7,2.6-2,4c-0.1,0.4-0.1,0.8-0.2,1.1c0,0.4,0,0.8-0.1,1.2c0,0.8,0,1.6,0,2.4
																c0,6.3,0,12.9,0,19.7c0,13.6,0,28.2,0,43.6c0,15.3,0,31.4,0,48.1c0,8.3,0,16.8,0,25.5c0,4.3,0,8.7,0,13
																c0,1.1,0,2.2,0,3.3c0,1.1,0.1,2.2,0.4,3.2c0.6,2.1,2,3.9,3.7,5.2c1.8,1.2,4,1.8,6.2,1.7c2.2,0,4.4,0,6.6,0
																c4.4,0,8.7,0,13,0c8.6,0,17.1,0,25.5,0c4.2,0,8.3,0,12.4,0c2,0,4.1,0,6.1,0c2-0.1,3.9-0.9,5.5-2.1
																c0.8-0.6,1.4-1.4,2-2.2c0.5-0.8,0.9-1.7,1.2-2.7c0.3-0.9,0.4-1.9,0.4-2.9c0-1,0-2,0-3c0-3.9,0-7.8,0-11.6
																c0-30.7,0-58.3,0-81.5c0-23.2,0-42,0.1-54.9c0-1.6,0-3.2,0-4.6c0-1.4-0.2-2.8-0.7-3.9c-0.5-1.2-1.1-2.1-1.8-2.9
																c-0.7-0.8-1.5-1.4-2.2-1.8c-1.5-0.9-2.8-1.2-3.6-1.3c-0.4-0.1-0.8-0.1-1-0.1C219,127.5,218.9,127.5,218.9,127.5z"/>
														</g>
													</g>
												</g>
											</g>
										</g>
									</g>
								</g>
							</g>
						</g>
					</g>
					<g>
						<g>
							<g>
								<g>
									<g>
										<g>
											<g>
												<path class="st6" d="M220.8,143.3c0,0-1.6,0.1-3.6,0.1c-2,0-3.6,0-3.6,0c0,0,1.6-0.1,3.6-0.1
													C219.2,143.2,220.8,143.2,220.8,143.3z"/>
											</g>
										</g>
									</g>
								</g>
							</g>
						</g>
						<g>
							<g>
								<g>
									<g>
										<g>
											<g>
												<path class="st6" d="M220.8,145.1c0,0-1.6,0.1-3.6,0.1c-2,0-3.6,0-3.6,0c0,0,1.6-0.1,3.6-0.1
													C219.2,145,220.8,145.1,220.8,145.1z"/>
											</g>
										</g>
									</g>
								</g>
							</g>
						</g>
						<g>
							<g>
								<g>
									<g>
										<g>
											<g>
												<path class="st6" d="M220.8,146.9c0,0-1.6,0.1-3.6,0.1c-2,0-3.6,0-3.6,0c0,0,1.6-0.1,3.6-0.1
													C219.2,146.9,220.8,146.9,220.8,146.9z"/>
											</g>
										</g>
									</g>
								</g>
							</g>
						</g>
					</g>
					<g>
						<g>
							<g>
								<g>
									<g>
										<g>
											<path class="st6" d="M155.4,149c0,0,0.1,0,0.1,0c0.1,0,0.3,0,0.4,0c0.4,0,0.9,0,1.5,0l0,0c0-0.3,0-0.7,0-1.1
												c0-0.2,0-0.4,0-0.6c0-0.2,0.3-0.4,0.5-0.5c0.2,0,0.5,0,0.7,0c0.3,0,0.5,0.3,0.5,0.6c0,0.5,0,1.1,0,1.6l-0.1-0.1
												c0.6,0,1.3,0,1.9,0L161,149c0-0.8,0-1.6,0-2.4c0-0.2,0-0.4,0-0.6c0-0.2-0.1-0.3-0.3-0.5c-0.3-0.3-0.6-0.6-0.8-0.8
												c-0.3-0.3-0.5-0.5-0.8-0.8c-0.1-0.1-0.3-0.3-0.4-0.4c-0.1-0.1-0.2-0.3-0.4-0.3c-0.1,0-0.3,0-0.4,0.1
												c-0.1,0.1-0.2,0.2-0.4,0.4c-0.2,0.2-0.5,0.5-0.7,0.7c-0.4,0.5-0.9,0.9-1.2,1.3c-0.1,0.2-0.1,0.5-0.1,0.7
												c0,0.2,0,0.5,0,0.7c0,0.4,0,0.8,0,1.1c0,0.3,0,0.5,0,0.7C155.4,149,155.4,149,155.4,149s0-0.1,0-0.2c0-0.2,0-0.4,0-0.7
												c0-0.3,0-0.7,0-1.1c0-0.2,0-0.4,0-0.7c0-0.1,0-0.2,0-0.4c0-0.1,0-0.3,0.1-0.4c0.4-0.4,0.8-0.8,1.2-1.3
												c0.2-0.2,0.4-0.5,0.7-0.7c0.1-0.1,0.2-0.2,0.4-0.4c0.2-0.1,0.4-0.2,0.6-0.1c0.2,0,0.3,0.2,0.5,0.3
												c0.1,0.1,0.3,0.3,0.4,0.4c0.3,0.3,0.5,0.5,0.8,0.8c0.3,0.3,0.6,0.6,0.8,0.8c0.1,0.1,0.1,0.1,0.2,0.2
												c0.1,0.1,0.1,0.2,0.1,0.3c0,0.2,0,0.4,0,0.6c0,0.8,0,1.6,0,2.4v0.1h-0.1c-0.7,0-1.3,0-1.9,0h-0.1V149c0-0.6,0-1.1,0-1.6
												c0-0.2-0.2-0.4-0.4-0.5c-0.2,0-0.5,0-0.7,0c-0.2,0-0.4,0.2-0.4,0.4c0,0.2,0,0.4,0,0.6c0,0.4,0,0.8,0,1.1v0h0
												c-0.6,0-1.2,0-1.6,0c-0.2,0-0.3,0-0.4,0C155.5,149.1,155.4,149,155.4,149z"/>
										</g>
									</g>
								</g>
							</g>
						</g>
					</g>
				</g>
				<g>
					<g>
						<g>
							<g>
								<path class="st7" d="M194.6,159.1c0,3.6-2.9,6.5-6.5,6.5c-3.6,0-6.5-2.9-6.5-6.5c0-3.6,2.9-6.5,6.5-6.5
									S194.6,155.5,194.6,159.1z"/>
							</g>
						</g>
						<g>
							<g>
								<g>
									<path class="st9" d="M190.3,161.7h-4.5v-0.5c0-1.2,1-2.2,2.2-2.2l0,0c1.2,0,2.2,1,2.2,2.2V161.7z"/>
								</g>
							</g>
							<g>
								<g>
									<path class="st9" d="M189.4,157.8c0,0.7-0.6,1.3-1.3,1.3s-1.3-0.6-1.3-1.3c0-0.7,0.6-1.3,1.3-1.3
										C188.8,156.5,189.4,157.1,189.4,157.8z"/>
								</g>
							</g>
						</g>
					</g>
				</g>
				<g>
					<g>
						<g>
							<path class="st6" d="M204.2,176.3c0,0.3-7.7,0.5-17.2,0.5c-9.5,0-17.2-0.2-17.2-0.5c0-0.3,7.7-0.5,17.2-0.5
								C196.5,175.8,204.2,176,204.2,176.3z"/>
						</g>
					</g>
				</g>
			</g>
			<g>
				<g>
					<g>
						<g>
							
								<rect x="155.6" y="189.8" transform="matrix(5.574001e-03 -1 1 5.574001e-03 -38.8047 370.1958)" class="st7" width="22.3" height="29.7"/>
						</g>
					</g>
				</g>
				<g>
					<g>
						<g>
							<polygon class="st7" points="151.8,215.7 162.3,201.9 168.6,210.6 173,206 181.5,215.9 							"/>
						</g>
					</g>
				</g>
				<g>
					<g>
						<g>
							<g>
								<g>
									<path class="st7" d="M171.4,200.2c0,1.3-1.1,2.3-2.4,2.3c-1.3,0-2.3-1.1-2.3-2.4c0-1.3,1.1-2.3,2.4-2.3
										C170.4,197.9,171.4,198.9,171.4,200.2z"/>
								</g>
							</g>
						</g>
					</g>
				</g>
				<g class="st8">
					<g>
						<g>
							<polygon points="151.8,215.7 162.3,201.9 168.6,210.6 173,206 181.5,215.9 							"/>
						</g>
					</g>
				</g>
				<g class="st8">
					<g>
						<g>
							<g>
								<g>
									<path d="M171.4,200.2c0,1.3-1.1,2.3-2.4,2.3c-1.3,0-2.3-1.1-2.3-2.4c0-1.3,1.1-2.3,2.4-2.3
										C170.4,197.9,171.4,198.9,171.4,200.2z"/>
								</g>
							</g>
						</g>
					</g>
				</g>
			</g>
			<g>
				<g>
					<g>
						<g>
							
								<rect x="160.2" y="214.2" transform="matrix(5.572190e-03 -1 1 5.572190e-03 -63.5883 433.2003)" class="st7" width="51.6" height="68.7"/>
						</g>
					</g>
				</g>
				<g>
					<g>
						<g>
							<polygon class="st7" points="151.5,274.2 175.7,242.2 190.4,262.4 200.6,251.7 220.2,274.6 							"/>
						</g>
					</g>
				</g>
				<g>
					<g>
						<g>
							<g>
								<g>
									<path class="st7" d="M196.9,238.4c0,3-2.4,5.4-5.4,5.4c-3,0-5.4-2.4-5.4-5.4c0-3,2.4-5.4,5.4-5.4
										C194.5,233,196.9,235.4,196.9,238.4z"/>
								</g>
							</g>
						</g>
					</g>
				</g>
				<g class="st8">
					<g>
						<g>
							<polygon points="151.5,274.2 175.7,242.2 190.4,262.4 200.6,251.7 220.2,274.6 							"/>
						</g>
					</g>
				</g>
				<g class="st8">
					<g>
						<g>
							<g>
								<g>
									<path d="M196.9,238.4c0,3-2.4,5.4-5.4,5.4c-3,0-5.4-2.4-5.4-5.4c0-3,2.4-5.4,5.4-5.4C194.5,233,196.9,235.4,196.9,238.4z"
										/>
								</g>
							</g>
						</g>
					</g>
				</g>
			</g>
			<g>
				<g>
					<g>
						<g>
							
								<rect x="194.8" y="189.8" transform="matrix(5.573969e-03 -1 1 5.573969e-03 0.1882 409.4058)" class="st7" width="22.3" height="29.7"/>
						</g>
					</g>
				</g>
				<g>
					<g>
						<g>
							<polygon class="st7" points="191,215.7 201.5,201.9 207.8,210.6 212.2,206 220.7,215.9 							"/>
						</g>
					</g>
				</g>
				<g>
					<g>
						<g>
							<g>
								<g>
									<circle class="st7" cx="208.3" cy="200.2" r="2.3"/>
								</g>
							</g>
						</g>
					</g>
				</g>
				<g class="st8">
					<g>
						<g>
							<polygon points="191,215.7 201.5,201.9 207.8,210.6 212.2,206 220.7,215.9 							"/>
						</g>
					</g>
				</g>
				<g class="st8">
					<g>
						<g>
							<g>
								<g>
									<circle cx="208.3" cy="200.2" r="2.3"/>
								</g>
							</g>
						</g>
					</g>
				</g>
			</g>
		</g>
	</g>
	<g>
		<g>
			<g>
				<g>
					<path class="st2" d="M398.1,136.3c-1.5,0-3.4,0-5.7,0c-0.6,0-1.2-0.1-1.7,0.2c-0.6,0.2-1,0.6-1.3,1.2c-0.1,0.3-0.3,0.6-0.3,0.9
						c-0.1,0.3,0,0.7,0,1c0,0.3,0,0.7,0,1s0,0.7-0.1,1.1c-0.1,0.7-0.6,1.4-1.3,1.8c-0.3,0.2-0.7,0.3-1.1,0.4c-0.4,0-0.8,0-1.2,0
						c-1.6,0-3.3,0-5.1,0c-3.5,0-7.4,0-11.5,0c-1,0-2.1,0-3.2,0c-0.3,0-0.5,0-0.8,0c-0.3,0-0.6,0-0.8-0.1c-0.5-0.1-1-0.4-1.4-0.9
						c-0.4-0.4-0.6-1-0.7-1.5c0-0.3,0-0.6,0-0.9c0-0.3,0-0.6,0-0.9c0-0.6,0-1.1-0.2-1.7c-0.2-0.5-0.5-1-1-1.3
						c-0.5-0.3-1-0.5-1.6-0.4c-0.6,0-1.2,0-1.8,0c-1.2,0-2.4,0-3.7,0c-2.5,0-5,0-7.6,0c-1.3,0-2.6,0.2-3.8,0.7
						c-1.2,0.5-2.3,1.3-3.2,2.4c-0.9,1-1.5,2.3-1.8,3.6c-0.1,0.3-0.1,0.7-0.2,1c0,0.3,0,0.6,0,0.9v56.8c0,0.8,0,1.5,0,2.3
						c0,2.3,0,4.6,0,7v73.8c0,0.9,0.1,1.9,0.4,2.8c0.6,1.9,1.8,3.5,3.4,4.6c1.6,1.1,3.6,1.6,5.5,1.5c2,0,3.9,0,5.9,0
						c3.9,0,7.8,0,11.7,0c7.7,0,15.3,0,22.8,0c3.7,0,7.4,0,11.1,0c1.8,0,3.7,0,5.5,0c1.8-0.1,3.5-0.8,4.9-1.9c0.7-0.6,1.3-1.2,1.8-2
						c0.5-0.7,0.8-1.6,1.1-2.4c0.3-0.8,0.3-1.7,0.3-2.6c0-0.9,0-1.8,0-2.6c0-3.5,0-7,0-10.4c0-27.5,0-52.3,0-73.1
						c0-20.8,0-37.6,0.1-49.3c0-1.5,0-2.8,0-4.1c0-1.3-0.2-2.5-0.6-3.5s-1-1.9-1.6-2.6c-0.6-0.7-1.3-1.2-2-1.6
						c-1.3-0.8-2.5-1-3.3-1.2c-0.4-0.1-0.7-0.1-0.9-0.1c-0.2,0-0.3,0-0.3,0s-0.4,0-1.2,0C400.8,136.3,399.6,136.3,398.1,136.3z"/>
				</g>
			</g>
		</g>
		<g>
			<g>
				<g>
					<rect x="349.2" y="195.5" class="st10" width="49.1" height="10"/>
				</g>
			</g>
			<g>
				<g>
					<g>
						<g>
							<g>
								<g>
									<g>
										<g>
											<g>
												<g>
													<g>
														<path class="st6" d="M402.9,136.2c0,0,0.1,0,0.3,0c0.2,0,0.5,0,0.9,0.1c0.8,0.1,2,0.3,3.3,1.1c0.7,0.4,1.3,0.9,2,1.6
															c0.6,0.7,1.2,1.6,1.7,2.6c0.4,1,0.7,2.3,0.7,3.5c0,1.3,0,2.7,0,4.1c0,11.6,0,28.5,0,49.3c0,20.8,0,45.6,0,73.1
															c0,3.4,0,6.9,0,10.4c0,0.9,0,1.8,0,2.6c0,0.9-0.1,1.8-0.3,2.7c-0.3,0.9-0.6,1.7-1.1,2.5c-0.5,0.8-1.1,1.4-1.8,2
															c-1.4,1.1-3.2,1.9-5,2c-1.8,0.1-3.7,0-5.5,0c-3.7,0-7.4,0-11.1,0c-7.5,0-15.1,0-22.8,0c-3.9,0-7.8,0-11.7,0
															c-2,0-3.9,0-5.9,0c-2,0.1-4-0.4-5.7-1.6c-1.7-1.1-2.9-2.9-3.5-4.8c-0.3-1-0.4-2-0.4-3c0-1,0-2,0-2.9
															c0-3.9,0-7.8,0-11.7c0-7.7,0-15.3,0-22.8c0-15,0-29.4,0-43.2c0-13.7,0-26.8,0-39.1c0-6.1,0-12,0-17.7
															c0-0.7,0-1.4,0-2.1c0-0.4,0-0.7,0.1-1.1c0.1-0.3,0.1-0.7,0.2-1c0.3-1.4,1-2.6,1.8-3.7c0.9-1,2-1.9,3.2-2.4
															c1.2-0.6,2.6-0.7,3.9-0.7c2.6,0,5.1,0,7.6,0c1.2,0,2.5,0,3.7,0c0.6,0,1.2,0,1.8,0c0.6,0,1.2,0.1,1.7,0.5
															c0.5,0.3,0.9,0.8,1.1,1.4c0.2,0.6,0.2,1.2,0.2,1.7c0,0.3,0,0.6,0,0.9c0,0.3,0,0.6,0,0.8c0.1,0.5,0.3,1.1,0.7,1.5
															c0.3,0.4,0.8,0.7,1.3,0.8c0.3,0.1,0.5,0.1,0.8,0.1c0.3,0,0.5,0,0.8,0c1.1,0,2.1,0,3.2,0c4.1,0,8,0,11.5,0
															c1.8,0,3.5,0,5.1,0c0.4,0,0.8,0,1.2,0c0.4,0,0.7-0.2,1.1-0.4c0.6-0.4,1.1-1.1,1.2-1.8c0.1-0.4,0.1-0.7,0.1-1.1
															c0-0.4,0-0.7,0-1c0-0.3,0-0.7,0-1c0.1-0.3,0.2-0.7,0.3-0.9c0.3-0.6,0.8-1,1.4-1.2c0.6-0.2,1.2-0.2,1.7-0.2
															c2.2,0,4.1,0,5.7,0c1.5,0,2.7,0,3.5,0C402.5,136.2,402.9,136.2,402.9,136.2s-0.4,0-1.2,0s-2,0-3.5,0s-3.4,0-5.7,0
															c-0.6,0-1.2-0.1-1.7,0.2c-0.6,0.2-1,0.6-1.3,1.2c-0.1,0.3-0.3,0.6-0.3,0.9c-0.1,0.3,0,0.7,0,1c0,0.3,0,0.7,0,1
															s0,0.7-0.1,1.1c-0.1,0.7-0.6,1.4-1.3,1.8c-0.3,0.2-0.7,0.3-1.1,0.4c-0.4,0-0.8,0-1.2,0c-1.6,0-3.3,0-5.1,0
															c-3.5,0-7.4,0-11.5,0c-1,0-2.1,0-3.2,0c-0.3,0-0.5,0-0.8,0c-0.3,0-0.6,0-0.8-0.1c-0.5-0.1-1-0.4-1.4-0.9
															c-0.4-0.4-0.6-1-0.7-1.5c0-0.3,0-0.6,0-0.9s0-0.6,0-0.9c0-0.6,0-1.1-0.2-1.7c-0.2-0.5-0.5-1-1-1.3
															c-0.5-0.3-1-0.5-1.6-0.4c-0.6,0-1.2,0-1.8,0c-1.2,0-2.4,0-3.7,0c-2.5,0-5,0-7.6,0c-1.3,0-2.6,0.2-3.8,0.7
															c-1.2,0.5-2.3,1.3-3.2,2.4c-0.9,1-1.5,2.3-1.8,3.6c-0.1,0.3-0.1,0.7-0.2,1c0,0.3,0,0.7,0,1c0,0.7,0,1.4,0,2.1
															c0,5.7,0,11.6,0,17.7c0,12.2,0,25.3,0,39.1c0,13.7,0,28.2,0,43.2c0,7.5,0,15.1,0,22.8c0,3.9,0,7.8,0,11.7
															c0,1,0,2,0,2.9s0.1,2,0.4,2.9c0.6,1.9,1.8,3.5,3.4,4.6c1.6,1.1,3.6,1.6,5.5,1.5c2,0,3.9,0,5.9,0c3.9,0,7.8,0,11.7,0
															c7.7,0,15.3,0,22.8,0c3.7,0,7.4,0,11.1,0c1.8,0,3.7,0,5.5,0c1.8-0.1,3.5-0.8,4.9-1.9c0.7-0.6,1.3-1.2,1.8-2
															c0.5-0.7,0.8-1.6,1.1-2.4c0.3-0.8,0.3-1.7,0.3-2.6c0-0.9,0-1.8,0-2.6c0-3.5,0-7,0-10.4c0-27.5,0-52.3,0-73.1
															c0-20.8,0-37.6,0.1-49.3c0-1.5,0-2.8,0-4.1c0-1.3-0.2-2.5-0.6-3.5c-0.4-1-1-1.9-1.6-2.6c-0.6-0.7-1.3-1.2-2-1.6
															c-1.3-0.8-2.5-1-3.3-1.2c-0.4-0.1-0.7-0.1-0.9-0.1C403,136.2,402.9,136.2,402.9,136.2z"/>
													</g>
												</g>
											</g>
										</g>
									</g>
								</g>
							</g>
						</g>
					</g>
				</g>
				<g>
					<g>
						<g>
							<g>
								<g>
									<g>
										<g>
											<path class="st6" d="M404.6,150.3c0,0-1.4,0.1-3.2,0.1c-1.8,0-3.2,0-3.2,0c0,0,1.4-0.1,3.2-0.1
												C403.2,150.3,404.6,150.3,404.6,150.3z"/>
										</g>
									</g>
								</g>
							</g>
						</g>
					</g>
					<g>
						<g>
							<g>
								<g>
									<g>
										<g>
											<path class="st6" d="M404.6,152c0,0-1.4,0.1-3.2,0.1s-3.2,0-3.2,0c0,0,1.4-0.1,3.2-0.1C403.2,151.9,404.6,152,404.6,152z
												"/>
										</g>
									</g>
								</g>
							</g>
						</g>
					</g>
					<g>
						<g>
							<g>
								<g>
									<g>
										<g>
											<path class="st6" d="M404.6,153.6c0,0-1.4,0.1-3.2,0.1c-1.8,0-3.2,0-3.2,0c0,0,1.4-0.1,3.2-0.1S404.6,153.6,404.6,153.6z
												"/>
										</g>
									</g>
								</g>
							</g>
						</g>
					</g>
				</g>
				<g>
					<g>
						<g>
							<g>
								<g>
									<g>
										<path class="st6" d="M346,155.5c0,0,0,0,0.1,0c0.1,0,0.2,0,0.4,0c0.4,0,0.8,0,1.4,0l0,0c0-0.3,0-0.6,0-1
											c0-0.2,0-0.4,0-0.6c0-0.2,0.2-0.4,0.5-0.4c0.2,0,0.4,0,0.7,0c0.2,0,0.5,0.3,0.4,0.5c0,0.5,0,1,0,1.5l-0.1-0.1
											c0.6,0,1.1,0,1.7,0l-0.1,0.1c0-0.7,0-1.4,0-2.2c0-0.2,0-0.4,0-0.6c0-0.2-0.1-0.3-0.2-0.4c-0.3-0.3-0.5-0.5-0.8-0.7
											c-0.2-0.2-0.5-0.5-0.7-0.7c-0.1-0.1-0.2-0.2-0.4-0.4c-0.1-0.1-0.2-0.2-0.4-0.3c-0.1,0-0.3,0-0.4,0.1
											c-0.1,0.1-0.2,0.2-0.3,0.3c-0.2,0.2-0.4,0.4-0.6,0.6c-0.4,0.4-0.8,0.8-1.1,1.1c-0.1,0.2-0.1,0.4-0.1,0.7
											c0,0.2,0,0.4,0,0.6c0,0.4,0,0.7,0,1c0,0.3,0,0.5,0,0.6C346,155.4,346,155.5,346,155.5c0,0,0-0.1,0-0.2c0-0.2,0-0.4,0-0.6
											c0-0.3,0-0.6,0-1c0-0.2,0-0.4,0-0.6c0-0.1,0-0.2,0-0.3c0-0.1,0-0.2,0.1-0.4c0.3-0.4,0.7-0.7,1.1-1.2
											c0.2-0.2,0.4-0.4,0.6-0.6c0.1-0.1,0.2-0.2,0.3-0.3c0.1-0.1,0.3-0.1,0.5-0.1c0.2,0,0.3,0.2,0.4,0.3
											c0.1,0.1,0.2,0.2,0.4,0.4c0.2,0.2,0.5,0.5,0.7,0.7c0.2,0.2,0.5,0.5,0.8,0.7c0.1,0.1,0.1,0.1,0.2,0.2
											c0.1,0.1,0.1,0.2,0.1,0.3c0,0.2,0,0.4,0,0.6c0,0.7,0,1.5,0,2.2v0.1h-0.1c-0.6,0-1.2,0-1.7,0h-0.1v-0.1c0-0.5,0-1,0-1.5
											c0-0.2-0.2-0.4-0.4-0.4c-0.2,0-0.4,0-0.6,0c-0.2,0-0.3,0.2-0.4,0.3c0,0.2,0,0.4,0,0.6c0,0.4,0,0.7,0,1v0h0
											c-0.6,0-1,0-1.4,0C346.3,155.5,346.2,155.5,346,155.5C346,155.5,346,155.5,346,155.5z"/>
									</g>
								</g>
							</g>
						</g>
					</g>
				</g>
			</g>
			<g>
				<g>
					<rect x="349.3" y="210.5" class="st10" width="49.1" height="10"/>
				</g>
			</g>
			<g>
				<g>
					<rect x="349.3" y="225" class="st10" width="49.1" height="10"/>
				</g>
			</g>
			<g>
				<g>
					<path class="st7" d="M386.7,255H362c-2.8,0-5-2.2-5-5l0,0c0-2.8,2.2-5,5-5h24.7c2.8,0,5,2.2,5,5l0,0
						C391.7,252.8,389.5,255,386.7,255z"/>
				</g>
			</g>
			<g>
				<g>
					<g>
						<path class="st6" d="M389.6,185.1c0,0.2-6.9,0.4-15.4,0.4c-8.5,0-15.4-0.2-15.4-0.4s6.9-0.4,15.4-0.4
							C382.7,184.7,389.6,184.9,389.6,185.1z"/>
					</g>
				</g>
			</g>
		</g>
	</g>
	<g>
		<g>
			<g>
				<g>
					<path class="st2" d="M357.8,125.9c-1.7,0-3.8,0-6.3,0c-0.6,0-1.3-0.1-1.9,0.2c-0.6,0.2-1.2,0.7-1.5,1.3c-0.2,0.3-0.3,0.7-0.4,1
						c-0.1,0.4,0,0.7,0,1.1c0,0.4,0,0.8,0,1.2c0,0.4,0,0.8-0.1,1.2c-0.2,0.8-0.7,1.6-1.4,2c-0.4,0.2-0.8,0.4-1.2,0.4
						c-0.4,0-0.9,0-1.3,0c-1.8,0-3.7,0-5.7,0c-3.9,0-8.2,0-12.8,0c-1.2,0-2.3,0-3.5,0c-0.3,0-0.6,0-0.9,0c-0.3,0-0.6,0-0.9-0.1
						c-0.6-0.1-1.2-0.5-1.6-1c-0.4-0.5-0.7-1.1-0.8-1.7c0-0.3,0-0.6,0-1c0-0.3,0-0.6,0-1c0-0.6,0-1.3-0.2-1.9
						c-0.2-0.6-0.6-1.1-1.1-1.5c-0.5-0.4-1.2-0.5-1.8-0.5c-0.7,0-1.3,0-2,0c-1.3,0-2.7,0-4.1,0c-2.8,0-5.6,0-8.5,0
						c-1.4,0-2.9,0.2-4.3,0.8c-1.3,0.6-2.6,1.5-3.5,2.6c-1,1.2-1.7,2.6-2,4c-0.1,0.4-0.1,0.8-0.2,1.1c0,0.3,0,0.6,0,1v63.3
						c0,0.8,0,1.7,0,2.5c0,2.6,0,5.2,0,7.8v82.3c0,1,0.1,2.1,0.4,3.1c0.6,2.1,2,3.9,3.7,5.2c1.8,1.2,4,1.8,6.2,1.7
						c2.2,0,4.4,0,6.6,0c4.4,0,8.7,0,13,0c8.6,0,17.1,0,25.5,0c4.2,0,8.3,0,12.4,0c2,0,4.1,0,6.1,0c2-0.1,3.9-0.9,5.5-2.1
						c0.8-0.6,1.4-1.4,2-2.2c0.5-0.8,0.9-1.7,1.2-2.7c0.3-0.9,0.4-1.9,0.4-2.9c0-1,0-2,0-3c0-3.9,0-7.8,0-11.6c0-30.7,0-58.3,0-81.5
						c0-23.2,0-42,0.1-54.9c0-1.6,0-3.2,0-4.6c0-1.4-0.2-2.8-0.7-3.9c-0.5-1.2-1.1-2.1-1.8-2.9c-0.7-0.8-1.5-1.4-2.2-1.8
						c-1.5-0.9-2.8-1.2-3.6-1.3c-0.4-0.1-0.8-0.1-1-0.1c-0.2,0-0.3,0-0.3,0s-0.4,0-1.3,0C360.8,125.9,359.5,125.9,357.8,125.9z"/>
				</g>
			</g>
		</g>
		<g>
			<g>
				<g>
					<g>
						<g>
							<g>
								<g>
									<g>
										<g>
											<g>
												<g>
													<g>
														<path class="st6" d="M363.1,126c0,0,0.1,0,0.3,0c0.2,0,0.6,0,1,0.1c0.9,0.1,2.2,0.4,3.7,1.3c0.7,0.4,1.5,1,2.2,1.8
															s1.4,1.7,1.9,2.9c0.5,1.2,0.7,2.5,0.7,4c0,1.4,0,3,0,4.6c0,13,0,31.7,0,54.9c0,23.2,0,50.8,0,81.5c0,3.8,0,7.7,0,11.6
															c0,1,0,2,0,3c0,1-0.1,2-0.4,3c-0.3,1-0.7,1.9-1.2,2.7c-0.6,0.8-1.2,1.6-2,2.3c-1.6,1.3-3.6,2.1-5.6,2.2
															c-2,0.1-4.1,0-6.1,0c-4.1,0-8.2,0-12.4,0c-8.3,0-16.8,0-25.5,0c-4.3,0-8.7,0-13,0c-2.2,0-4.4,0-6.6,0
															c-2.2,0.1-4.5-0.5-6.3-1.8c-1.9-1.3-3.2-3.2-3.9-5.3c-0.3-1.1-0.4-2.2-0.4-3.3c0-1.1,0-2.2,0-3.3c0-4.4,0-8.7,0-13
															c0-8.6,0-17.1,0-25.5c0-16.7,0-32.8,0-48.1c0-15.3,0-29.9,0-43.6c0-6.8,0-13.4,0-19.7c0-0.8,0-1.6,0-2.4
															c0-0.4,0-0.8,0.1-1.2c0.1-0.4,0.1-0.8,0.2-1.2c0.4-1.5,1.1-2.9,2.1-4.1c1-1.2,2.2-2.1,3.6-2.7
															c1.4-0.6,2.9-0.8,4.3-0.8c2.9,0,5.7,0,8.5,0c1.4,0,2.7,0,4.1,0c0.7,0,1.3,0,2,0c0.7,0,1.4,0.1,1.9,0.5
															c0.6,0.4,1,0.9,1.2,1.6c0.2,0.6,0.2,1.3,0.2,1.9c0,0.3,0,0.6,0,1c0,0.3,0,0.6,0,0.9c0.1,0.6,0.3,1.2,0.7,1.6
															c0.4,0.5,0.9,0.8,1.5,0.9c0.3,0.1,0.6,0.1,0.9,0.1c0.3,0,0.6,0,0.9,0c1.2,0,2.4,0,3.5,0c4.6,0,8.9,0,12.8,0
															c2,0,3.9,0,5.7,0c0.4,0,0.9,0,1.3,0c0.4-0.1,0.8-0.2,1.2-0.4c0.7-0.4,1.2-1.2,1.4-2c0.1-0.4,0.1-0.8,0.1-1.2
															c0-0.4,0-0.8,0-1.2c0-0.4,0-0.8,0.1-1.1c0.1-0.4,0.2-0.7,0.4-1c0.4-0.6,0.9-1.1,1.6-1.4c0.6-0.3,1.3-0.2,1.9-0.2
															c2.5,0,4.6,0,6.3,0c1.7,0,3,0,3.9,0C362.6,126,363.1,126,363.1,126s-0.4,0-1.3,0c-0.9,0-2.2,0-3.9,0
															c-1.7,0-3.8,0-6.3,0c-0.6,0-1.3-0.1-1.9,0.2c-0.6,0.2-1.2,0.7-1.5,1.3c-0.2,0.3-0.3,0.7-0.4,1c-0.1,0.4,0,0.7,0,1.1
															c0,0.4,0,0.8,0,1.2c0,0.4,0,0.8-0.1,1.2c-0.2,0.8-0.7,1.6-1.4,2c-0.4,0.2-0.8,0.4-1.2,0.4c-0.4,0-0.9,0-1.3,0
															c-1.8,0-3.7,0-5.7,0c-3.9,0-8.2,0-12.8,0c-1.2,0-2.3,0-3.5,0c-0.3,0-0.6,0-0.9,0c-0.3,0-0.6,0-0.9-0.1
															c-0.6-0.1-1.2-0.5-1.6-1c-0.4-0.5-0.7-1.1-0.8-1.7c0-0.3,0-0.6,0-1c0-0.3,0-0.6,0-1c0-0.6,0-1.3-0.2-1.9
															c-0.2-0.6-0.6-1.1-1.1-1.5c-0.5-0.4-1.2-0.5-1.8-0.5c-0.7,0-1.3,0-2,0c-1.3,0-2.7,0-4.1,0c-2.8,0-5.6,0-8.5,0
															c-1.4,0-2.9,0.2-4.3,0.8c-1.3,0.6-2.6,1.5-3.5,2.6c-1,1.2-1.7,2.6-2,4c-0.1,0.4-0.1,0.8-0.2,1.1c0,0.4,0,0.8-0.1,1.2
															c0,0.8,0,1.6,0,2.4c0,6.3,0,12.9,0,19.7c0,13.6,0,28.2,0,43.6c0,15.3,0,31.4,0,48.1c0,8.3,0,16.8,0,25.5
															c0,4.3,0,8.7,0,13c0,1.1,0,2.2,0,3.3c0,1.1,0.1,2.2,0.4,3.2c0.6,2.1,2,3.9,3.7,5.2c1.8,1.2,4,1.8,6.2,1.7
															c2.2,0,4.4,0,6.6,0c4.4,0,8.7,0,13,0c8.6,0,17.1,0,25.5,0c4.2,0,8.3,0,12.4,0c2,0,4.1,0,6.1,0c2-0.1,3.9-0.9,5.5-2.1
															c0.8-0.6,1.4-1.4,2-2.2c0.6-0.8,0.9-1.7,1.2-2.7c0.3-0.9,0.4-1.9,0.4-2.9c0-1,0-2,0-3c0-3.9,0-7.8,0-11.6
															c0-30.7,0-58.3,0-81.5c0-23.2,0-42,0.1-54.9c0-1.6,0-3.2,0-4.6c0-1.4-0.2-2.8-0.7-3.9c-0.5-1.2-1.1-2.1-1.8-2.9
															c-0.7-0.8-1.5-1.4-2.2-1.8c-1.5-0.9-2.8-1.2-3.6-1.3c-0.4-0.1-0.8-0.1-1-0.1C363.2,126,363.1,126,363.1,126z"/>
													</g>
												</g>
											</g>
										</g>
									</g>
								</g>
							</g>
						</g>
					</g>
				</g>
				<g>
					<g>
						<g>
							<g>
								<g>
									<g>
										<g>
											<path class="st6" d="M365,141.8c0,0-1.6,0.1-3.6,0.1c-2,0-3.6,0-3.6,0c0,0,1.6-0.1,3.6-0.1
												C363.3,141.7,365,141.7,365,141.8z"/>
										</g>
									</g>
								</g>
							</g>
						</g>
					</g>
					<g>
						<g>
							<g>
								<g>
									<g>
										<g>
											<path class="st6" d="M365,143.6c0,0-1.6,0.1-3.6,0.1c-2,0-3.6,0-3.6,0c0,0,1.6-0.1,3.6-0.1
												C363.4,143.6,365,143.6,365,143.6z"/>
										</g>
									</g>
								</g>
							</g>
						</g>
					</g>
					<g>
						<g>
							<g>
								<g>
									<g>
										<g>
											<path class="st6" d="M365,145.5c0,0-1.6,0.1-3.6,0.1c-2,0-3.6,0-3.6,0c0,0,1.6-0.1,3.6-0.1
												C363.4,145.4,365,145.4,365,145.5z"/>
										</g>
									</g>
								</g>
							</g>
						</g>
					</g>
				</g>
				<g>
					<g>
						<g>
							<g>
								<g>
									<g>
										<path class="st6" d="M299.6,147.6c0,0,0.1,0,0.1,0c0.1,0,0.3,0,0.4,0c0.4,0,0.9,0,1.5,0l0,0c0-0.3,0-0.7,0-1.1
											c0-0.2,0-0.4,0-0.6c0-0.2,0.3-0.4,0.5-0.5c0.2,0,0.5,0,0.7,0c0.3,0,0.5,0.3,0.5,0.6c0,0.5,0,1.1,0,1.6l-0.1-0.1
											c0.6,0,1.3,0,1.9,0l-0.1,0.1c0-0.8,0-1.6,0-2.4c0-0.2,0-0.4,0-0.6c0-0.2-0.1-0.3-0.3-0.5c-0.3-0.3-0.6-0.6-0.8-0.8
											c-0.3-0.3-0.5-0.5-0.8-0.8c-0.1-0.1-0.3-0.3-0.4-0.4c-0.1-0.1-0.2-0.3-0.4-0.3c-0.1,0-0.3,0-0.4,0.1
											c-0.1,0.1-0.2,0.2-0.4,0.4c-0.2,0.2-0.5,0.5-0.7,0.7c-0.4,0.5-0.9,0.9-1.2,1.3c-0.1,0.2-0.1,0.5-0.1,0.7
											c0,0.2,0,0.5,0,0.7c0,0.4,0,0.8,0,1.1c0,0.3,0,0.5,0,0.7C299.6,147.5,299.6,147.5,299.6,147.6c0,0,0-0.1,0-0.2
											c0-0.2,0-0.4,0-0.7c0-0.3,0-0.7,0-1.1c0-0.2,0-0.4,0-0.7c0-0.1,0-0.3,0-0.4c0-0.1,0-0.3,0.1-0.4c0.4-0.4,0.8-0.8,1.2-1.3
											c0.2-0.2,0.4-0.5,0.7-0.7c0.1-0.1,0.2-0.2,0.4-0.4c0.2-0.1,0.4-0.2,0.6-0.1c0.2,0,0.3,0.2,0.5,0.3
											c0.1,0.1,0.3,0.3,0.4,0.4c0.3,0.3,0.5,0.5,0.8,0.8c0.3,0.3,0.6,0.6,0.8,0.8c0.1,0.1,0.1,0.1,0.2,0.2
											c0.1,0.1,0.1,0.2,0.1,0.3c0,0.2,0,0.4,0,0.6c0,0.8,0,1.6,0,2.4v0.1h-0.1c-0.7,0-1.3,0-1.9,0h-0.1v-0.1c0-0.6,0-1.1,0-1.6
											c0-0.2-0.2-0.4-0.4-0.5c-0.2,0-0.5,0-0.7,0c-0.2,0-0.4,0.2-0.4,0.4c0,0.2,0,0.4,0,0.6c0,0.4,0,0.8,0,1.1v0h0
											c-0.6,0-1.2,0-1.6,0c-0.2,0-0.3,0-0.4,0C299.6,147.6,299.6,147.6,299.6,147.6z"/>
									</g>
								</g>
							</g>
						</g>
					</g>
				</g>
			</g>
			<g>
				<g>
					<g>
						<g>
							
								<ellipse transform="matrix(0.153 -0.9882 0.9882 0.153 99.7585 484.0988)" class="st7" cx="332.3" cy="183.9" rx="16.3" ry="16.3"/>
						</g>
					</g>
					<g>
						<g>
							<g>
								<path class="st9" d="M337.9,190.4h-11.2V189c0-3.1,2.5-5.6,5.6-5.6l0,0c3.1,0,5.6,2.5,5.6,5.6V190.4z"/>
							</g>
						</g>
						<g>
							<g>
								<circle class="st9" cx="332.3" cy="180.6" r="3.3"/>
							</g>
						</g>
					</g>
				</g>
			</g>
			<g>
				<g>
					<rect x="303.3" y="218.7" class="st10" width="54.8" height="11.2"/>
				</g>
			</g>
			<g>
				<g>
					<rect x="303.3" y="235" class="st10" width="54.8" height="11.2"/>
				</g>
			</g>
			<g>
				<g>
					<path class="st7" d="M345,268.4h-27.5c-3.1,0-5.6-2.5-5.6-5.6l0,0c0-3.1,2.5-5.6,5.6-5.6H345c3.1,0,5.6,2.5,5.6,5.6l0,0
						C350.6,265.9,348,268.4,345,268.4z"/>
				</g>
			</g>
			<g>
				<g>
					<g>
						<path class="st6" d="M348.4,212c0,0.3-7.7,0.5-17.2,0.5c-9.5,0-17.2-0.2-17.2-0.5c0-0.3,7.7-0.5,17.2-0.5
							C340.7,211.5,348.4,211.7,348.4,212z"/>
					</g>
				</g>
			</g>
			<g>
				<g>
					<g>
						<path class="st11" d="M310.9,226.8h-2.4c-0.2,0-0.4-0.2-0.4-0.4l0,0c0-0.9,0.7-1.6,1.6-1.6h0.1c0.9,0,1.6,0.7,1.6,1.6l0,0
							C311.3,226.6,311.1,226.8,310.9,226.8z"/>
					</g>
				</g>
				<g>
					<g>
						<path class="st11" d="M310.6,223.9c0,0.5-0.4,1-1,1c-0.5,0-1-0.4-1-1s0.4-1,1-1C310.2,222.9,310.6,223.4,310.6,223.9z"/>
					</g>
				</g>
			</g>
			<g>
				<g>
					<g>
						<rect x="308.2" y="240.8" class="st11" width="2.9" height="2"/>
					</g>
				</g>
				<g>
					<g>
						<path class="st11" d="M311.4,241.2h-1v-0.6c0-0.4-0.4-0.8-0.8-0.8c-0.4,0-0.8,0.4-0.8,0.8v0.6h-1v-0.6c0-1,0.8-1.8,1.8-1.8
							s1.8,0.8,1.8,1.8V241.2z"/>
					</g>
				</g>
			</g>
		</g>
	</g>
	<g>
		<g>
			<g>
				<g>
					<path class="st2" d="M299.7,91.5c-2.5,0-5.7,0-9.4,0c-0.9,0-1.9-0.1-2.8,0.3c-0.9,0.4-1.7,1.1-2.2,2c-0.3,0.5-0.4,1-0.5,1.5
						c-0.1,0.5-0.1,1.1-0.1,1.7c0,0.6,0,1.1,0,1.7c0,0.6,0,1.2-0.1,1.8c-0.2,1.2-1,2.3-2.1,3c-0.5,0.3-1.2,0.6-1.8,0.7
						c-0.7,0.1-1.3,0-2,0c-2.7,0-5.5,0-8.4,0c-5.9,0-12.3,0-19.1,0c-1.7,0-3.5,0-5.2,0c-0.4,0-0.9,0-1.3,0c-0.4,0-0.9,0-1.4-0.1
						c-0.9-0.2-1.7-0.7-2.3-1.5c-0.6-0.7-1-1.6-1.1-2.6c-0.1-0.5,0-1-0.1-1.4c0-0.5,0-0.9,0-1.4c0-1,0.1-1.9-0.3-2.8
						c-0.3-0.9-0.9-1.7-1.7-2.2c-0.8-0.5-1.7-0.8-2.7-0.7c-1,0-2,0-3,0c-2,0-4,0-6.1,0c-4.1,0-8.3,0-12.6,0c-2.1,0-4.3,0.3-6.3,1.2
						c-2,0.9-3.8,2.2-5.3,3.9c-1.4,1.7-2.5,3.8-3,6c-0.1,0.6-0.2,1.1-0.3,1.7c0,0.5-0.1,1-0.1,1.4v94.2c0,1.3,0,2.5,0,3.8
						c0,3.8,0,7.7,0,11.6v122.5c0,1.5,0.1,3.1,0.6,4.6c0.9,3.1,2.9,5.9,5.6,7.7c2.7,1.9,6,2.7,9.2,2.5c3.3,0,6.5,0,9.8,0
						c6.5,0,13,0,19.4,0c12.8,0,25.5,0,37.9,0c6.2,0,12.4,0,18.5,0c3,0,6.1,0.1,9.1,0c3-0.1,5.9-1.3,8.2-3.2c1.1-0.9,2.1-2,2.9-3.3
						c0.8-1.2,1.4-2.6,1.8-4c0.4-1.4,0.5-2.9,0.5-4.3c0-1.5,0-2.9,0-4.4c0-5.8,0-11.6,0-17.3c0-45.6,0.1-86.8,0.1-121.3
						c0-34.5,0.1-62.5,0.1-81.8c0-2.4,0-4.7,0-6.8c0-2.1-0.4-4.1-1.1-5.8c-0.7-1.7-1.7-3.2-2.7-4.3c-1.1-1.2-2.2-2.1-3.3-2.7
						c-2.2-1.3-4.1-1.7-5.4-1.9c-0.6-0.1-1.1-0.1-1.5-0.1c-0.3,0-0.5,0-0.5,0s-0.7,0-2,0C304.2,91.5,302.3,91.5,299.7,91.5z"/>
				</g>
			</g>
		</g>
		<g>
			<g>
				<g>
					<g>
						<g>
							<g>
								<g>
									<g>
										<g>
											<g>
												<g>
													<g>
														<path class="st6" d="M307.6,91.6c0,0,0.2,0,0.5,0c0.3,0,0.8,0,1.5,0.1c1.3,0.1,3.2,0.6,5.4,1.9
															c1.1,0.6,2.2,1.5,3.3,2.7c1.1,1.2,2.1,2.6,2.8,4.3c0.7,1.7,1.1,3.7,1.1,5.9c0,2.1,0,4.4,0,6.8c0,19.3,0,47.2,0.1,81.6
															c0,34.5,0,75.5,0,121.1c0,5.7,0,11.5,0,17.3c0,1.5,0,2.9,0,4.4c0,1.5-0.1,3-0.6,4.4c-0.4,1.4-1,2.8-1.8,4.1
															c-0.8,1.2-1.8,2.4-3,3.3c-2.4,1.9-5.3,3.1-8.4,3.2c-3,0.1-6,0-9.1,0c-6.1,0-12.2,0-18.4,0c-12.4,0-25,0-37.8,0
															c-6.4,0-12.9,0-19.3,0c-3.2,0-6.5,0-9.8,0c-3.3,0.2-6.7-0.7-9.4-2.6c-2.8-1.9-4.8-4.8-5.7-7.9
															c-0.5-1.6-0.6-3.3-0.6-4.9s0-3.3,0-4.9c0-6.5,0-12.9,0-19.3c0-12.8,0-25.4,0-37.8c0-24.8,0-48.7,0-71.5
															c0-22.8,0-44.4,0-64.7c0-10.1,0-19.9,0-29.3c0-1.2,0-2.3,0-3.5c0-0.6,0.1-1.2,0.1-1.8c0.1-0.6,0.1-1.2,0.3-1.7
															c0.5-2.3,1.6-4.4,3-6.1c1.5-1.7,3.3-3.1,5.4-4c2-0.9,4.3-1.2,6.4-1.2c4.3,0,8.5,0,12.6,0c2.1,0,4.1,0,6.1,0
															c1,0,2,0,3,0c1-0.1,2,0.2,2.9,0.8c0.8,0.6,1.4,1.4,1.8,2.3c0.4,0.9,0.3,1.9,0.3,2.9c0,0.5,0,0.9,0,1.4
															c0,0.5,0,0.9,0,1.4c0.1,0.9,0.5,1.8,1.1,2.4c0.6,0.7,1.4,1.2,2.2,1.4c0.4,0.1,0.9,0.1,1.3,0.1c0.4,0,0.9,0,1.3,0
															c1.8,0,3.5,0,5.2,0c6.8,0,13.2,0,19.1,0c2.9,0,5.7,0,8.4,0c0.7,0,1.3,0,2,0c0.6-0.1,1.2-0.3,1.8-0.6
															c1.1-0.7,1.8-1.8,2-2.9c0.1-0.6,0.1-1.2,0.1-1.8c0-0.6,0-1.2,0-1.7c0-0.6,0-1.1,0.1-1.7c0.1-0.6,0.3-1.1,0.5-1.5
															c0.5-1,1.4-1.7,2.3-2c1-0.4,2-0.3,2.9-0.3c3.7,0,6.8,0,9.4,0c2.5,0,4.5,0,5.8,0C307,91.6,307.6,91.6,307.6,91.6
															s-0.7,0-2,0c-1.3,0-3.2,0-5.8,0c-2.5,0-5.7,0-9.4,0c-0.9,0-1.9-0.1-2.8,0.3c-0.9,0.4-1.7,1.1-2.2,2
															c-0.3,0.5-0.4,1-0.5,1.5c-0.1,0.5-0.1,1.1-0.1,1.7c0,0.6,0,1.1,0,1.7c0,0.6,0,1.2-0.1,1.8c-0.2,1.2-1,2.3-2.1,3
															c-0.5,0.3-1.2,0.6-1.8,0.7c-0.7,0.1-1.3,0-2,0c-2.7,0-5.5,0-8.4,0c-5.9,0-12.2,0-19.1,0c-1.7,0-3.5,0-5.2,0
															c-0.4,0-0.9,0-1.3,0c-0.4,0-0.9,0-1.4-0.1c-0.9-0.2-1.7-0.7-2.3-1.4c-0.6-0.7-1-1.6-1.1-2.6c-0.1-0.5,0-1-0.1-1.4
															c0-0.5,0-0.9,0-1.4c0-0.9,0.1-1.9-0.3-2.8c-0.3-0.9-0.9-1.7-1.7-2.2c-0.8-0.5-1.7-0.8-2.7-0.7c-1,0-2,0-3,0
															c-2,0-4,0-6.1,0c-4.1,0-8.3,0-12.6,0c-2.1,0-4.3,0.3-6.3,1.2c-2,0.9-3.8,2.2-5.3,3.9c-1.4,1.7-2.5,3.8-3,6
															c-0.1,0.6-0.2,1.1-0.3,1.7c0,0.6-0.1,1.1-0.1,1.7c0,1.2,0,2.3,0,3.5c0,9.4,0,19.2,0,29.3c0,20.3,0,41.9,0,64.7
															c0,22.8,0,46.7,0,71.5c0,12.4,0,25,0,37.8c0,6.4,0,12.9,0,19.3c0,1.6,0,3.2,0,4.9c0,1.6,0.1,3.2,0.6,4.8
															c0.9,3.1,2.9,5.9,5.6,7.7c2.7,1.8,5.9,2.7,9.2,2.5c3.3,0,6.5,0,9.8,0c6.5,0,12.9,0,19.3,0c12.8,0,25.4,0,37.8,0
															c6.2,0,12.3,0,18.4,0c3,0,6.1,0.1,9.1,0c3-0.1,5.8-1.3,8.1-3.2c1.1-0.9,2.1-2,2.9-3.3c0.8-1.2,1.4-2.6,1.8-4
															c0.4-1.4,0.5-2.9,0.5-4.3c0-1.5,0-2.9,0-4.4c0-5.8,0-11.6,0-17.3c0-45.6,0-86.6,0.1-121.1c0-34.5,0.1-62.4,0.1-81.6
															c0-2.4,0-4.7,0-6.8c0-2.1-0.4-4.1-1.1-5.8c-0.7-1.7-1.7-3.2-2.7-4.3c-1.1-1.1-2.2-2-3.3-2.7c-2.2-1.3-4.1-1.7-5.4-1.9
															c-0.6-0.1-1.1-0.1-1.5-0.1C307.8,91.6,307.6,91.6,307.6,91.6z"/>
													</g>
												</g>
											</g>
										</g>
									</g>
								</g>
							</g>
						</g>
					</g>
				</g>
				<g>
					<g>
						<g>
							<g>
								<g>
									<g>
										<g>
											<path class="st6" d="M310.4,115c0,0.1-2.4,0.1-5.3,0.2c-2.9,0-5.3,0-5.3-0.1s2.4-0.1,5.3-0.2
												C308,114.9,310.4,115,310.4,115z"/>
										</g>
									</g>
								</g>
							</g>
						</g>
					</g>
					<g>
						<g>
							<g>
								<g>
									<g>
										<g>
											<path class="st6" d="M310.5,117.8c0,0.1-2.4,0.1-5.3,0.2c-2.9,0-5.3,0-5.3-0.1c0-0.1,2.4-0.1,5.3-0.2
												C308.1,117.7,310.5,117.7,310.5,117.8z"/>
										</g>
									</g>
								</g>
							</g>
						</g>
					</g>
					<g>
						<g>
							<g>
								<g>
									<g>
										<g>
											<path class="st6" d="M310.5,120.5c0,0.1-2.4,0.1-5.3,0.2c-2.9,0-5.3,0-5.3-0.1c0-0.1,2.4-0.1,5.3-0.2
												C308.1,120.4,310.5,120.4,310.5,120.5z"/>
										</g>
									</g>
								</g>
							</g>
						</g>
					</g>
				</g>
				<g>
					<g>
						<g>
							<g>
								<g>
									<g>
										<path class="st6" d="M213.3,123.6c0,0,0.1,0,0.2,0c0.2,0,0.4,0,0.6,0c0.6,0,1.3,0,2.3-0.1l-0.1,0.1c0-0.5,0-1.1,0-1.7
											c0-0.3,0-0.6,0-1c0.1-0.4,0.4-0.7,0.8-0.7c0.4,0,0.7,0,1.1,0c0.4,0.1,0.8,0.4,0.7,0.9c0,0.8,0,1.6,0,2.4l-0.1-0.1
											c0.9,0,1.9,0,2.9,0l-0.1,0.1c0-1.2,0-2.4,0-3.6c0-0.3,0-0.6,0-0.9c0-0.3-0.2-0.5-0.4-0.7c-0.4-0.4-0.8-0.8-1.3-1.2
											s-0.8-0.8-1.2-1.2c-0.2-0.2-0.4-0.4-0.6-0.6c-0.2-0.2-0.4-0.4-0.6-0.4c-0.2-0.1-0.5,0-0.7,0.1c-0.2,0.1-0.4,0.4-0.5,0.5
											c-0.4,0.4-0.7,0.7-1,1c-0.7,0.7-1.3,1.3-1.8,1.9c-0.2,0.3-0.1,0.7-0.1,1.1c0,0.4,0,0.7,0,1c0,0.6,0,1.2,0,1.6
											c0,0.4,0,0.8,0,1C213.3,123.5,213.3,123.6,213.3,123.6c0,0,0-0.1,0-0.3c0-0.3,0-0.6,0-1c0-0.5,0-1,0-1.6c0-0.3,0-0.7,0-1
											c0-0.2,0-0.4,0-0.6c0-0.2,0.1-0.4,0.2-0.6c0.5-0.7,1.2-1.2,1.8-1.9c0.3-0.3,0.7-0.7,1-1c0.2-0.2,0.3-0.4,0.6-0.6
											c0.2-0.2,0.5-0.2,0.8-0.2c0.3,0.1,0.5,0.3,0.7,0.5c0.2,0.2,0.4,0.4,0.6,0.6c0.4,0.4,0.8,0.8,1.2,1.2
											c0.4,0.4,0.8,0.8,1.3,1.2c0.1,0.1,0.2,0.2,0.3,0.4c0.1,0.1,0.1,0.3,0.1,0.5c0,0.3,0,0.6,0,0.9c0,1.2,0,2.4,0,3.6v0.1h-0.1
											c-1,0-2,0-2.9,0h-0.1v-0.1c0-0.8,0-1.6,0-2.4c0-0.3-0.3-0.7-0.6-0.7c-0.3,0-0.7,0-1,0c-0.3,0-0.6,0.3-0.6,0.6
											c0,0.3,0,0.6,0,0.9c0,0.6,0,1.1,0,1.7v0.1h-0.1c-1,0-1.7,0-2.3,0c-0.2,0-0.4,0-0.6,0C213.4,123.6,213.3,123.6,213.3,123.6
											z"/>
									</g>
								</g>
							</g>
						</g>
					</g>
				</g>
				<g>
					<g>
						<g>
							<g>
								<g>
									<g>
										<g>
											<path class="st12" d="M302.1,156.4h-85.4c-4.3,0-7.7-3.5-7.7-7.7v-2.9c0-4.3,3.5-7.7,7.7-7.7h85.4c4.3,0,7.7,3.5,7.7,7.7
												v2.9C309.9,152.9,306.4,156.4,302.1,156.4z"/>
										</g>
									</g>
								</g>
							</g>
						</g>
						<g>
							<g>
								<g>
									<g>
										<g>
											<g>
												<path class="st6" d="M302.1,156.4c0,0,0.2,0,0.6-0.1c0.4,0,1-0.1,1.7-0.3c0.7-0.2,1.6-0.6,2.4-1.3
													c0.9-0.7,1.7-1.6,2.3-2.9c0.3-0.6,0.5-1.4,0.6-2.1c0.1-0.8,0.1-1.6,0.1-2.5c0-0.9,0-1.8-0.1-2.7c-0.1-0.9-0.5-1.8-1-2.7
													c-1-1.7-2.9-3.1-5.1-3.5c-1.1-0.2-2.3-0.1-3.5-0.1c-1.2,0-2.5,0-3.7,0c-20.4,0-48.5,0-79.6,0.1c-1.9,0-3.8,0.7-5.1,2
													c-1.4,1.3-2.2,3.1-2.4,4.9c-0.1,0.9,0,1.9,0,2.8c0,1,0,1.8,0.3,2.7c0.5,1.8,1.6,3.3,3.1,4.3c0.7,0.5,1.6,0.8,2.4,1
													c0.9,0.2,1.8,0.2,2.7,0.2c1.8,0,3.6,0,5.3,0c3.5,0,7,0,10.3,0c13.5,0,25.6,0,35.8,0c10.2,0,18.4,0,24.1,0.1
													c2.8,0,5.1,0,6.6,0c0.7,0,1.3,0,1.7,0C301.9,156.4,302.1,156.4,302.1,156.4s-0.2,0-0.6,0c-0.4,0-1,0-1.7,0
													c-1.5,0-3.7,0-6.6,0c-5.7,0-14,0-24.1,0.1c-10.2,0-22.3,0-35.8,0c-3.4,0-6.8,0-10.3,0c-1.8,0-3.5,0-5.3,0
													c-0.9,0-1.8,0-2.7-0.2c-0.9-0.2-1.8-0.6-2.6-1.1c-1.6-1-2.8-2.6-3.3-4.5c-0.3-0.9-0.3-1.9-0.3-2.8c0-0.9,0-1.9,0-2.8
													c0.2-1.9,1.1-3.8,2.5-5.1c1.4-1.3,3.4-2.1,5.4-2.1c31.1,0,59.2,0,79.6,0.1c1.3,0,2.5,0,3.7,0c1.2,0,2.4-0.1,3.6,0.1
													c2.3,0.4,4.2,1.9,5.2,3.7c0.5,0.9,0.9,1.8,1,2.8c0.2,0.9,0.1,1.9,0.1,2.7c0,0.9,0,1.7-0.1,2.5c-0.1,0.8-0.3,1.5-0.6,2.2
													c-0.6,1.3-1.5,2.3-2.4,2.9c-0.9,0.7-1.8,1-2.5,1.3c-0.7,0.2-1.3,0.3-1.7,0.3C302.3,156.4,302.1,156.4,302.1,156.4z"/>
											</g>
										</g>
									</g>
								</g>
							</g>
						</g>
					</g>
					<g>
						<g>
							<g>
								<g>
									<g>
										<g>
											<g>
												<path class="st6" d="M303.7,146.8c0,0,0-0.3-0.2-0.8c-0.1-0.5-0.5-1.2-1.2-1.7c-0.7-0.5-1.9-0.8-3-0.4
													c-1.1,0.4-2.1,1.6-2.1,3c0,1.4,1,2.6,2.1,3c1.1,0.4,2.3,0.1,3-0.4c0.7-0.5,1.1-1.2,1.2-1.7
													C303.7,147.1,303.7,146.8,303.7,146.8c0,0,0,0.1,0,0.2c0,0.1,0,0.4-0.1,0.6c-0.1,0.5-0.4,1.3-1.2,1.9
													c-0.7,0.6-2,1-3.3,0.5c-1.2-0.4-2.3-1.7-2.3-3.3c0-1.5,1.1-2.9,2.3-3.3c1.3-0.4,2.5-0.1,3.3,0.5
													c0.8,0.6,1.1,1.4,1.2,1.9c0.1,0.3,0.1,0.5,0.1,0.6C303.7,146.7,303.7,146.8,303.7,146.8z"/>
											</g>
										</g>
									</g>
								</g>
							</g>
						</g>
						<g>
							<g>
								<g>
									<g>
										<g>
											<g>
												<path class="st6" d="M305.5,152.5c-0.1,0.1-0.8-0.6-1.6-1.5c-0.8-0.9-1.4-1.7-1.3-1.7c0.1-0.1,0.8,0.6,1.6,1.5
													C305,151.7,305.6,152.4,305.5,152.5z"/>
											</g>
										</g>
									</g>
								</g>
							</g>
						</g>
					</g>
					<g>
						<g>
							<g>
								<g>
									<g>
										<path class="st11" d="M222.6,145.4h-1.8v-0.5h4.1v0.5h-1.8v4.7h-0.5L222.6,145.4L222.6,145.4z"/>
									</g>
								</g>
							</g>
						</g>
						<g>
							<g>
								<g>
									<g>
										<path class="st11" d="M228.7,148.3h-3.2c0.1,0.8,0.7,1.3,1.5,1.3c0.5,0,0.9-0.2,1.2-0.5l0.3,0.3c-0.3,0.4-0.9,0.6-1.5,0.6
											c-1.2,0-2-0.8-2-2s0.8-2,1.9-2c1.1,0,1.9,0.8,1.9,2C228.7,148.2,228.7,148.2,228.7,148.3z M225.4,147.9h2.7
											c-0.1-0.8-0.6-1.3-1.4-1.3C226.1,146.6,225.5,147.1,225.4,147.9z"/>
									</g>
								</g>
							</g>
						</g>
						<g>
							<g>
								<g>
									<g>
										<path class="st11" d="M232.1,150l-1.2-1.6l-1.2,1.6H229l1.5-2l-1.5-1.9h0.6l1.2,1.5l1.2-1.5h0.6l-1.5,1.9l1.5,2H232.1z"/>
									</g>
								</g>
							</g>
						</g>
						<g>
							<g>
								<g>
									<g>
										<path class="st11" d="M235.6,149.8c-0.2,0.2-0.5,0.3-0.8,0.3c-0.7,0-1.1-0.4-1.1-1.1v-2.3h-0.7v-0.4h0.7v-0.8h0.5v0.8h1.2
											v0.4h-1.2v2.3c0,0.5,0.2,0.7,0.7,0.7c0.2,0,0.4-0.1,0.6-0.2L235.6,149.8z"/>
									</g>
								</g>
							</g>
						</g>
					</g>
				</g>
				<g>
					<g>
						<g>
							<g>
								<g>
									<g>
										<g>
											<path class="st7" d="M277.8,173.9c0,0.1-7.4,0.2-16.5,0.2s-16.5-0.1-16.5-0.2c0-0.1,7.4-0.2,16.5-0.2
												C270.4,173.7,277.8,173.8,277.8,173.9z"/>
										</g>
									</g>
								</g>
							</g>
						</g>
					</g>
					<g>
						<g>
							<g>
								<g>
									<g>
										<g>
											<path class="st6" d="M304.1,180.6c0,0.1-13.3,0.2-29.6,0.2c-16.4,0-29.6-0.1-29.6-0.2c0-0.1,13.3-0.2,29.6-0.2
												C290.8,180.5,304.1,180.5,304.1,180.6z"/>
										</g>
									</g>
								</g>
							</g>
						</g>
					</g>
					<g>
						<g>
							<g>
								<g>
									<g>
										<g>
											<path class="st6" d="M303.4,185.5c0,0.1-13.1,0.2-29.3,0.2s-29.3-0.1-29.3-0.2c0-0.1,13.1-0.2,29.3-0.2
												C290.3,185.3,303.4,185.4,303.4,185.5z"/>
										</g>
									</g>
								</g>
							</g>
						</g>
					</g>
					<g>
						<g>
							<g>
								<g>
									<g>
										<g>
											<path class="st6" d="M279.4,190.1c0,0.1-7.7,0.2-17.3,0.2c-9.5,0-17.3-0.1-17.3-0.2c0-0.1,7.7-0.2,17.3-0.2
												C271.7,189.9,279.4,190,279.4,190.1z"/>
										</g>
									</g>
								</g>
							</g>
						</g>
					</g>
				</g>
				<g>
					<g>
						<g>
							<g>
								<g>
									<g>
										<g>
											<path class="st7" d="M277.8,210.7c0,0.1-7.4,0.2-16.5,0.2s-16.5-0.1-16.5-0.2c0-0.1,7.4-0.2,16.5-0.2
												C270.4,210.5,277.8,210.6,277.8,210.7z"/>
										</g>
									</g>
								</g>
							</g>
						</g>
					</g>
					<g>
						<g>
							<g>
								<g>
									<g>
										<g>
											<path class="st6" d="M304.1,217.4c0,0.1-13.3,0.2-29.6,0.2c-16.4,0-29.6-0.1-29.6-0.2c0-0.1,13.3-0.2,29.6-0.2
												C290.8,217.2,304.1,217.3,304.1,217.4z"/>
										</g>
									</g>
								</g>
							</g>
						</g>
					</g>
					<g>
						<g>
							<g>
								<g>
									<g>
										<g>
											<path class="st6" d="M303.4,222.3c0,0.1-13.1,0.2-29.3,0.2s-29.3-0.1-29.3-0.2c0-0.1,13.1-0.2,29.3-0.2
												C290.3,222.1,303.4,222.2,303.4,222.3z"/>
										</g>
									</g>
								</g>
							</g>
						</g>
					</g>
					<g>
						<g>
							<g>
								<g>
									<g>
										<g>
											<path class="st6" d="M279.4,226.9c0,0.1-7.7,0.2-17.3,0.2c-9.5,0-17.3-0.1-17.3-0.2c0-0.1,7.7-0.2,17.3-0.2
												C271.7,226.7,279.4,226.8,279.4,226.9z"/>
										</g>
									</g>
								</g>
							</g>
						</g>
					</g>
				</g>
				<g>
					<g>
						<g>
							<g>
								<g>
									<g>
										<g>
											<path class="st7" d="M277.8,247.4c0,0.1-7.4,0.2-16.5,0.2s-16.5-0.1-16.5-0.2s7.4-0.2,16.5-0.2
												C270.4,247.3,277.8,247.4,277.8,247.4z"/>
										</g>
									</g>
								</g>
							</g>
						</g>
					</g>
					<g>
						<g>
							<g>
								<g>
									<g>
										<g>
											<path class="st6" d="M304.1,254.2c0,0.1-13.3,0.2-29.6,0.2c-16.4,0-29.6-0.1-29.6-0.2c0-0.1,13.3-0.2,29.6-0.2
												C290.8,254,304.1,254.1,304.1,254.2z"/>
										</g>
									</g>
								</g>
							</g>
						</g>
					</g>
					<g>
						<g>
							<g>
								<g>
									<g>
										<g>
											<path class="st6" d="M303.4,259.1c0,0.1-13.1,0.2-29.3,0.2s-29.3-0.1-29.3-0.2c0-0.1,13.1-0.2,29.3-0.2
												C290.3,258.9,303.4,259,303.4,259.1z"/>
										</g>
									</g>
								</g>
							</g>
						</g>
					</g>
					<g>
						<g>
							<g>
								<g>
									<g>
										<g>
											<path class="st6" d="M279.4,263.7c0,0.1-7.7,0.2-17.3,0.2c-9.5,0-17.3-0.1-17.3-0.2c0-0.1,7.7-0.2,17.3-0.2
												C271.7,263.5,279.4,263.6,279.4,263.7z"/>
										</g>
									</g>
								</g>
							</g>
						</g>
					</g>
				</g>
				<g>
					<g>
						<g>
							<g>
								<g>
									<g>
										<g>
											<path class="st7" d="M277.8,284.2c0,0.1-7.4,0.2-16.5,0.2s-16.5-0.1-16.5-0.2c0-0.1,7.4-0.2,16.5-0.2
												S277.8,284.1,277.8,284.2z"/>
										</g>
									</g>
								</g>
							</g>
						</g>
					</g>
					<g>
						<g>
							<g>
								<g>
									<g>
										<g>
											<path class="st6" d="M304.1,291c0,0.1-13.3,0.2-29.6,0.2c-16.4,0-29.6-0.1-29.6-0.2c0-0.1,13.3-0.2,29.6-0.2
												C290.8,290.8,304.1,290.9,304.1,291z"/>
										</g>
									</g>
								</g>
							</g>
						</g>
					</g>
					<g>
						<g>
							<g>
								<g>
									<g>
										<g>
											<path class="st6" d="M303.4,295.8c0,0.1-13.1,0.2-29.3,0.2s-29.3-0.1-29.3-0.2c0-0.1,13.1-0.2,29.3-0.2
												S303.4,295.7,303.4,295.8z"/>
										</g>
									</g>
								</g>
							</g>
						</g>
					</g>
					<g>
						<g>
							<g>
								<g>
									<g>
										<g>
											<path class="st6" d="M279.4,300.5c0,0.1-7.7,0.2-17.3,0.2c-9.5,0-17.3-0.1-17.3-0.2c0-0.1,7.7-0.2,17.3-0.2
												C271.7,300.3,279.4,300.3,279.4,300.5z"/>
										</g>
									</g>
								</g>
							</g>
						</g>
					</g>
				</g>
				<g>
					<g>
						<g>
							<g>
								<g>
									<g>
										<g>
											<path class="st7" d="M277.8,320.8c0,0.1-7.4,0.2-16.5,0.2s-16.5-0.1-16.5-0.2c0-0.1,7.4-0.2,16.5-0.2
												C270.4,320.6,277.8,320.7,277.8,320.8z"/>
										</g>
									</g>
								</g>
							</g>
						</g>
					</g>
					<g>
						<g>
							<g>
								<g>
									<g>
										<g>
											<path class="st6" d="M304.1,327.5c0,0.1-13.3,0.2-29.6,0.2c-16.4,0-29.6-0.1-29.6-0.2c0-0.1,13.3-0.2,29.6-0.2
												C290.8,327.3,304.1,327.4,304.1,327.5z"/>
										</g>
									</g>
								</g>
							</g>
						</g>
					</g>
					<g>
						<g>
							<g>
								<g>
									<g>
										<g>
											<path class="st6" d="M303.4,332.4c0,0.1-13.1,0.2-29.3,0.2s-29.3-0.1-29.3-0.2c0-0.1,13.1-0.2,29.3-0.2
												S303.4,332.3,303.4,332.4z"/>
										</g>
									</g>
								</g>
							</g>
						</g>
					</g>
					<g>
						<g>
							<g>
								<g>
									<g>
										<g>
											<path class="st6" d="M279.4,337c0,0.1-7.7,0.2-17.3,0.2c-9.5,0-17.3-0.1-17.3-0.2c0-0.1,7.7-0.2,17.3-0.2
												C271.7,336.8,279.4,336.9,279.4,337z"/>
										</g>
									</g>
								</g>
							</g>
						</g>
					</g>
				</g>
			</g>
			<g>
				<g>
					<g>
						<g>
							
								<rect x="212.8" y="170.3" transform="matrix(5.572783e-03 -1 1 5.572783e-03 37.8831 405.6293)" class="st7" width="20.2" height="26.9"/>
						</g>
					</g>
				</g>
				<g>
					<g>
						<g>
							<polygon class="st7" points="209.4,193.8 218.9,181.3 224.6,189.2 228.6,185 236.3,193.9 							"/>
						</g>
					</g>
				</g>
				<g>
					<g>
						<g>
							<g>
								<g>
									<path class="st7" d="M227.1,179.8c0,1.2-1,2.1-2.1,2.1c-1.2,0-2.1-1-2.1-2.1c0-1.2,1-2.1,2.1-2.1
										C226.2,177.7,227.2,178.6,227.1,179.8z"/>
								</g>
							</g>
						</g>
					</g>
				</g>
				<g class="st8">
					<g>
						<g>
							<polygon points="209.4,193.8 218.9,181.3 224.6,189.2 228.6,185 236.3,193.9 							"/>
						</g>
					</g>
				</g>
				<g class="st8">
					<g>
						<g>
							<g>
								<g>
									<path d="M227.1,179.8c0,1.2-1,2.1-2.1,2.1c-1.2,0-2.1-1-2.1-2.1c0-1.2,1-2.1,2.1-2.1C226.2,177.7,227.2,178.6,227.1,179.8z
										"/>
								</g>
							</g>
						</g>
					</g>
				</g>
			</g>
			<g>
				<g>
					<g>
						<g>
							
								<rect x="212.8" y="206.7" transform="matrix(5.569507e-03 -1 1 5.569507e-03 1.5677 441.7523)" class="st7" width="20.2" height="26.9"/>
						</g>
					</g>
				</g>
				<g>
					<g>
						<g>
							<polygon class="st7" points="209.4,230.1 218.9,217.6 224.6,225.5 228.6,221.3 236.3,230.3 							"/>
						</g>
					</g>
				</g>
				<g>
					<g>
						<g>
							<g>
								<g>
									<path class="st7" d="M227.1,216.1c0,1.2-1,2.1-2.1,2.1c-1.2,0-2.1-1-2.1-2.1c0-1.2,1-2.1,2.1-2.1
										C226.2,214,227.2,215,227.1,216.1z"/>
								</g>
							</g>
						</g>
					</g>
				</g>
				<g class="st8">
					<g>
						<g>
							<polygon points="209.4,230.1 218.9,217.6 224.6,225.5 228.6,221.3 236.3,230.3 							"/>
						</g>
					</g>
				</g>
				<g class="st8">
					<g>
						<g>
							<g>
								<g>
									<path d="M227.1,216.1c0,1.2-1,2.1-2.1,2.1c-1.2,0-2.1-1-2.1-2.1c0-1.2,1-2.1,2.1-2.1C226.2,214,227.2,215,227.1,216.1z"/>
								</g>
							</g>
						</g>
					</g>
				</g>
			</g>
			<g>
				<g>
					<g>
						<g>
							
								<rect x="212.8" y="243" transform="matrix(5.569507e-03 -1 1 5.569507e-03 -34.7564 477.8657)" class="st7" width="20.2" height="26.9"/>
						</g>
					</g>
				</g>
				<g>
					<g>
						<g>
							<polygon class="st7" points="209.4,266.4 218.9,253.9 224.6,261.8 228.6,257.6 236.3,266.6 							"/>
						</g>
					</g>
				</g>
				<g>
					<g>
						<g>
							<g>
								<g>
									<path class="st7" d="M227.1,252.4c0,1.2-1,2.1-2.1,2.1c-1.2,0-2.1-1-2.1-2.1c0-1.2,1-2.1,2.1-2.1
										C226.2,250.3,227.2,251.3,227.1,252.4z"/>
								</g>
							</g>
						</g>
					</g>
				</g>
				<g class="st8">
					<g>
						<g>
							<polygon points="209.4,266.4 218.9,253.9 224.6,261.8 228.6,257.6 236.3,266.6 							"/>
						</g>
					</g>
				</g>
				<g class="st8">
					<g>
						<g>
							<g>
								<g>
									<path d="M227.1,252.4c0,1.2-1,2.1-2.1,2.1c-1.2,0-2.1-1-2.1-2.1c0-1.2,1-2.1,2.1-2.1C226.2,250.3,227.2,251.3,227.1,252.4z
										"/>
								</g>
							</g>
						</g>
					</g>
				</g>
			</g>
			<g>
				<g>
					<g>
						<g>
							
								<rect x="212.8" y="279.3" transform="matrix(5.572783e-03 -1 1 5.572783e-03 -71.073 513.9871)" class="st7" width="20.2" height="26.9"/>
						</g>
					</g>
				</g>
				<g>
					<g>
						<g>
							<polygon class="st7" points="209.4,302.8 218.9,290.3 224.6,298.1 228.6,294 236.3,302.9 							"/>
						</g>
					</g>
				</g>
				<g>
					<g>
						<g>
							<g>
								<g>
									<path class="st7" d="M227.1,288.8c0,1.2-1,2.1-2.1,2.1s-2.1-1-2.1-2.1c0-1.2,1-2.1,2.1-2.1
										C226.2,286.6,227.2,287.6,227.1,288.8z"/>
								</g>
							</g>
						</g>
					</g>
				</g>
				<g class="st8">
					<g>
						<g>
							<polygon points="209.4,302.8 218.9,290.3 224.6,298.1 228.6,294 236.3,302.9 							"/>
						</g>
					</g>
				</g>
				<g class="st8">
					<g>
						<g>
							<g>
								<g>
									<path d="M227.1,288.8c0,1.2-1,2.1-2.1,2.1s-2.1-1-2.1-2.1c0-1.2,1-2.1,2.1-2.1C226.2,286.6,227.2,287.6,227.1,288.8z"/>
								</g>
							</g>
						</g>
					</g>
				</g>
			</g>
			<g>
				<g>
					<g>
						<g>
							
								<rect x="212.8" y="315.4" transform="matrix(5.572783e-03 -1 1 5.572783e-03 -107.22 549.9255)" class="st7" width="20.2" height="26.9"/>
						</g>
					</g>
				</g>
				<g>
					<g>
						<g>
							<polygon class="st7" points="209.4,338.9 218.9,326.4 224.6,334.3 228.6,330.1 236.3,339 							"/>
						</g>
					</g>
				</g>
				<g>
					<g>
						<g>
							<g>
								<g>
									<path class="st7" d="M227.1,324.9c0,1.2-1,2.1-2.1,2.1s-2.1-1-2.1-2.1c0-1.2,1-2.1,2.1-2.1S227.2,323.7,227.1,324.9z"/>
								</g>
							</g>
						</g>
					</g>
				</g>
				<g class="st8">
					<g>
						<g>
							<polygon points="209.4,338.9 218.9,326.4 224.6,334.3 228.6,330.1 236.3,339 							"/>
						</g>
					</g>
				</g>
				<g class="st8">
					<g>
						<g>
							<g>
								<g>
									<path d="M227.1,324.9c0,1.2-1,2.1-2.1,2.1s-2.1-1-2.1-2.1c0-1.2,1-2.1,2.1-2.1S227.2,323.7,227.1,324.9z"/>
								</g>
							</g>
						</g>
					</g>
				</g>
			</g>
		</g>
	</g>
	<g>
		<g>
			<ellipse class="st7" cx="411.5" cy="139" rx="9.6" ry="9.6"/>
		</g>
		<g>
			<path class="st9" d="M410.9,142.1c-0.1,0-0.2,0-0.3-0.1l-3.2-2.7c-0.2-0.2-0.2-0.4-0.1-0.6c0.2-0.2,0.4-0.2,0.6-0.1l2.9,2.4
				l4.1-5c0.1-0.2,0.4-0.2,0.6-0.1c0.2,0.1,0.2,0.4,0.1,0.6l-4.4,5.4C411.1,142,411,142.1,410.9,142.1
				C410.9,142.1,410.9,142.1,410.9,142.1z"/>
		</g>
	</g>
	<g>
		<g>
			<circle class="st7" cx="370.1" cy="125.9" r="13.1"/>
		</g>
		<g>
			<path class="st9" d="M369.3,130.4c-0.2,0-0.4-0.1-0.6-0.2l-4.4-3.6c-0.4-0.3-0.4-0.9-0.1-1.2c0.3-0.4,0.9-0.4,1.2-0.1l3.7,3.1
				l5.4-6.6c0.3-0.4,0.9-0.4,1.2-0.1c0.4,0.3,0.4,0.9,0.1,1.2l-6,7.3C369.9,130.3,369.6,130.4,369.3,130.4
				C369.4,130.4,369.4,130.4,369.3,130.4z"/>
		</g>
	</g>
</g>
<g id="Magnifying_Glass">
	<g>
		<g>
			<g>
				<g>
					<path class="st6" d="M314.4,304.2c-13.8-3.9-22.1-17.8-19.3-31.7c-0.2,0.7-0.5,1.4-0.7,2.1c-4.1,14.5,4.3,29.7,18.8,33.8
						c14.5,4.1,29.7-4.3,33.8-18.8c0.2-0.7,0.4-1.4,0.5-2.1C342.6,300.7,328.3,308.1,314.4,304.2z"/>
				</g>
				<g>
					<g>
						<path class="st13" d="M327.9,255.8c13.8,3.9,22.1,17.8,19.3,31.7c0.2-0.7,0.5-1.4,0.7-2.1c4.1-14.5-4.3-29.7-18.8-33.8
							c-14.5-4.1-29.7,4.3-33.8,18.8c-0.2,0.7-0.4,1.4-0.5,2.1C299.7,259.3,314.1,251.9,327.9,255.8z"/>
					</g>
				</g>
				<g>
					<g>
						<path class="st6" d="M348.3,285.3c0,0,0-0.1,0.1-0.4c0.1-0.3,0.2-0.7,0.3-1.3c0.1-0.3,0.1-0.6,0.2-0.9
							c0.1-0.3,0.1-0.7,0.1-1.1c0.1-0.8,0.2-1.8,0.2-2.9c0.1-2.2-0.2-4.8-0.9-7.8c-0.8-3-2.2-6.2-4.6-9.3c-2.3-3.1-5.5-6-9.6-8
							c-1-0.5-2.1-1-3.2-1.3c-0.6-0.2-1.1-0.4-1.7-0.5c-0.6-0.1-1.2-0.3-1.8-0.4c-0.3-0.1-0.6-0.1-0.9-0.2l-0.9-0.1
							c-0.6-0.1-1.2-0.2-1.8-0.2c-1.2,0-2.5-0.1-3.8,0c-1.3,0-2.5,0.3-3.8,0.5c-0.6,0.1-1.3,0.3-1.9,0.5c-0.6,0.1-1.3,0.4-1.9,0.6
							c-1.3,0.4-2.5,1.1-3.7,1.7c-1.2,0.7-2.4,1.4-3.4,2.3c-2.2,1.7-4.2,3.7-5.8,6.1c-1.6,2.4-2.8,5-3.7,7.9c-0.8,2.8-1.1,5.8-1,8.6
							c0.1,2.9,0.7,5.7,1.7,8.3c0.4,1.3,1.1,2.5,1.7,3.8c0.7,1.2,1.4,2.3,2.2,3.4c0.4,0.5,0.8,1.1,1.3,1.5c0.5,0.5,0.9,1,1.3,1.4
							c1,0.9,1.9,1.8,3,2.5c1,0.8,2.1,1.4,3.2,2c0.6,0.3,1.1,0.5,1.7,0.8l0.8,0.4c0.3,0.1,0.6,0.2,0.9,0.3c0.6,0.2,1.1,0.4,1.7,0.6
							c0.6,0.2,1.2,0.3,1.7,0.4c1.1,0.3,2.3,0.4,3.4,0.6c4.5,0.5,8.8-0.4,12.4-1.8c3.6-1.4,6.5-3.4,8.8-5.5c2.2-2.1,3.9-4.2,4.9-6.1
							c0.6-0.9,1-1.8,1.3-2.6c0.2-0.4,0.4-0.7,0.5-1c0.1-0.3,0.2-0.6,0.3-0.9c0.2-0.5,0.3-0.9,0.4-1.2
							C348.2,285.4,348.3,285.3,348.3,285.3s0,0.1-0.1,0.4c-0.1,0.3-0.2,0.7-0.4,1.2c-0.1,0.3-0.2,0.6-0.3,0.9
							c-0.1,0.3-0.3,0.7-0.5,1.1c-0.3,0.8-0.7,1.7-1.3,2.6c-1,1.9-2.6,4.1-4.9,6.2c-2.2,2.1-5.2,4.2-8.8,5.6
							c-3.6,1.4-8,2.3-12.6,1.8c-1.1-0.1-2.3-0.2-3.5-0.6c-0.6-0.1-1.2-0.2-1.8-0.4c-0.6-0.2-1.2-0.4-1.7-0.6
							c-0.3-0.1-0.6-0.2-0.9-0.3l-0.8-0.4c-0.6-0.3-1.1-0.5-1.7-0.8c-1.1-0.7-2.2-1.2-3.2-2c-1.1-0.7-2-1.6-3-2.5
							c-0.5-0.5-0.9-1-1.4-1.5c-0.5-0.5-0.9-1-1.3-1.6c-0.9-1-1.5-2.2-2.3-3.4c-0.6-1.2-1.3-2.5-1.7-3.8c-1-2.6-1.6-5.5-1.7-8.4
							c-0.1-2.9,0.2-5.9,1-8.8c0.9-2.9,2.1-5.6,3.7-8c1.6-2.4,3.7-4.5,5.9-6.2c1.1-0.9,2.3-1.6,3.5-2.3c1.2-0.6,2.4-1.3,3.7-1.7
							c0.6-0.2,1.3-0.5,1.9-0.6c0.7-0.2,1.3-0.4,1.9-0.5c1.3-0.2,2.6-0.5,3.9-0.5c1.3-0.1,2.6,0,3.8,0c0.6,0,1.2,0.1,1.9,0.2
							l0.9,0.1c0.3,0,0.6,0.1,0.9,0.2c0.6,0.1,1.2,0.3,1.8,0.4c0.6,0.2,1.1,0.4,1.7,0.6c1.1,0.3,2.2,0.9,3.2,1.3
							c4.1,2,7.4,5,9.7,8.2c2.3,3.1,3.8,6.4,4.5,9.4c0.8,3,1,5.7,0.9,7.9c0,1.1-0.1,2.1-0.3,2.9c-0.1,0.4-0.1,0.8-0.2,1.1
							c-0.1,0.3-0.2,0.7-0.2,0.9c-0.1,0.5-0.2,1-0.3,1.3C348.3,285.1,348.3,285.3,348.3,285.3z"/>
					</g>
				</g>
			</g>
			<g>
				<path class="st6" d="M337.9,300.9c0.3,0.2,26.3,24.1,35.8,33.1c1.6,1.5,4.1,1.5,5.7,0l0,0c1.7-1.7,1.7-4.4-0.1-6L343.8,295
					L337.9,300.9z"/>
			</g>
		</g>
	</g>
</g>
<g id="Character">
	<g>
		<g>
			<g>
				<path class="st14" d="M204.7,214.1l0.5-2.1c0.3-1.4,0.3-2.8-0.1-4.1l-2.2-7.3c-0.2-0.7-0.6-1.2-1.2-1.6c-1.6-1-4.9-2.8-5.2-2.6
					c-2,1.7,2.5,4.6,2.5,4.6s1.7,1.9,0.4,3.3c-1.5,1.6-4.5-1.9-4.5-1.9s0.2-0.4,0.3-0.3c0.1,0,1.5,1.2,2.8,1.2v-2.4l-2.6-1.7
					c-0.6-0.4-1.3-0.5-2-0.3l-0.9,0.2c-0.6,0.1-1.1,0.5-1.4,1l-0.9,1.3l-0.4,0.5c-0.4,0.5-0.4,1.1-0.2,1.7l0.4,0.9l-0.6,0.8
					c-0.5,0.7-0.6,1.5-0.3,2.3l4.5,6.1l6.6,10.8l7.1-7.7L204.7,214.1z"/>
			</g>
			<g>
				<g>
					<g>
						<path class="st15" d="M190.9,207.8c0,0-0.1-0.1-0.2-0.4c-0.1-0.3-0.1-0.8,0.2-1.1l0,0l0-0.1c0-0.1-0.1-0.1-0.1-0.2
							c-0.5-1-0.9-1.8-1-1.7c0,0,0.3,0.8,0.8,1.8c0,0.1,0.1,0.1,0.1,0.2l0-0.1c-0.3,0.4-0.3,1-0.2,1.3
							C190.7,207.7,190.9,207.8,190.9,207.8z"/>
					</g>
				</g>
			</g>
			<g>
				<g>
					<path class="st15" d="M191.4,199.8c0,0-0.3,0.4-0.1,1.2c0.1,0.8,0.6,1.8,1.2,2.8c0.2,0.3,0.3,0.5,0.4,0.8
						c0.1,0.3,0.1,0.6,0.1,0.9c-0.1,0.5,0,1,0.2,1.3c0.4,0.7,0.9,0.9,0.9,0.9c0,0-0.6-0.1-1-0.8c-0.2-0.4-0.3-0.9-0.2-1.4
						c0-0.3,0-0.5-0.1-0.8c-0.1-0.3-0.2-0.5-0.4-0.8c-0.6-1.1-1-2.1-1.2-3C191,200.2,191.4,199.7,191.4,199.8z"/>
				</g>
			</g>
			<g>
				<g>
					<path class="st15" d="M195,202.4c-0.1,0,0-0.5-0.3-1c-0.3-0.5-0.6-0.9-0.5-1c0.1,0,0.4,0.3,0.7,0.8
						C195.2,201.9,195,202.5,195,202.4z"/>
				</g>
			</g>
		</g>
		<g>
			<polygon class="st13" points="207.2,251 209.9,254.4 224,237.5 205.5,213.1 196.4,220.3 			"/>
		</g>
		<g>
			<g>
				<g>
					<g>
						<polygon class="st7" points="270.1,415.3 271.2,442.9 286.1,442.6 285,414.9 						"/>
					</g>
				</g>
			</g>
			<g>
				<g>
					<g>
						<g>
							<path class="st6" d="M278.5,441.7c0.1,0-0.1-6-0.5-13.5c-0.4-7.4-0.8-13.5-1-13.5c-0.1,0,0.1,6,0.5,13.5
								C278,435.7,278.4,441.7,278.5,441.7z"/>
						</g>
					</g>
				</g>
			</g>
			<g>
				<g>
					<g>
						<polygon class="st6" points="271.1,441 286,440.6 286.1,442.6 271.2,442.9 						"/>
					</g>
				</g>
			</g>
			<g>
				<g>
					<g>
						<g>
							<path class="st6" d="M285.8,433.7c0,0-0.1-0.2-0.4-0.6s-0.8-0.8-1.4-1.4c-0.6-0.5-1.5-1.1-2.5-1.5c-1-0.4-2.2-0.7-3.5-0.6
								c-2.6,0.1-4.7,1.5-5.7,2.8c-0.5,0.6-0.8,1.2-1,1.7c-0.2,0.4-0.2,0.7-0.2,0.7c0.1,0,0.4-1,1.5-2.1c1-1.2,3-2.4,5.5-2.6
								c2.4-0.1,4.5,1,5.8,1.9C285.1,433,285.7,433.8,285.8,433.7z"/>
						</g>
					</g>
				</g>
			</g>
			<g class="st16">
				<g>
					<g>
						<polygon points="285.3,422.8 285.4,425.8 270.5,426.1 270.4,423.8 						"/>
					</g>
				</g>
			</g>
		</g>
		<g>
			<g>
				<g>
					<g>
						<g>
							<g>
								<path class="st7" d="M235,416.9l0.7,16.8c0,0-16.8,6.4-17,9.5l32.6-0.2l-0.1-26.2L235,416.9z"/>
							</g>
						</g>
					</g>
					<g>
						<g>
							<g>
								<g>
									<path class="st11" d="M245.6,432.3c0.6,0.2,1.1,0.9,0.9,1.5c-0.1,0.6-0.9,1.1-1.5,0.9c-0.6-0.2-1.2-1-1-1.6
										s1.1-1.1,1.7-0.8"/>
								</g>
							</g>
						</g>
					</g>
					<g>
						<g>
							<g>
								<path class="st6" d="M251.3,443l0-2.6l-31.6,1.2c0,0-1.5,0.6-1.3,1.7L251.3,443z"/>
							</g>
						</g>
					</g>
					<g>
						<g>
							<g>
								<g>
									<path class="st6" d="M235.4,433.9c0,0.2,0.8,0.2,1.6,0.7c0.8,0.5,1.2,1.2,1.4,1.1c0.1,0-0.1-1-1.1-1.6
										C236.3,433.5,235.4,433.7,235.4,433.9z"/>
								</g>
							</g>
						</g>
					</g>
					<g>
						<g>
							<g>
								<g>
									<path class="st6" d="M232,435.3c0,0.2,0.7,0.4,1.2,1.1c0.6,0.7,0.7,1.4,0.9,1.4c0.1,0,0.3-0.9-0.4-1.7
										C232.9,435.2,232,435.1,232,435.3z"/>
								</g>
							</g>
						</g>
					</g>
					<g>
						<g>
							<g>
								<g>
									<path class="st6" d="M230.1,439.4c0.1,0,0.4-0.8-0.1-1.6c-0.4-0.9-1.2-1.2-1.2-1.1c-0.1,0.1,0.4,0.6,0.7,1.3
										C229.9,438.7,229.9,439.4,230.1,439.4z"/>
								</g>
							</g>
						</g>
					</g>
					<g>
						<g>
							<g>
								<g>
									<path class="st6" d="M235.7,430c0.1,0.1,0.8-0.1,1.7,0c0.9,0,1.6,0.3,1.7,0.2c0.1-0.1-0.6-0.7-1.7-0.8
										C236.3,429.3,235.6,429.9,235.7,430z"/>
								</g>
							</g>
						</g>
					</g>
				</g>
				<g>
					<g>
						<g>
							<g>
								<path class="st6" d="M235.1,426.4c0,0.1,0.6,0.2,1.6,0c0.5-0.1,1.1-0.3,1.7-0.5c0.3-0.1,0.6-0.3,0.9-0.5
									c0.1-0.1,0.3-0.2,0.5-0.4c0.2-0.2,0.3-0.6,0.1-0.9c-0.2-0.3-0.5-0.4-0.7-0.4c-0.2,0-0.4,0-0.6,0.1c-0.4,0.1-0.7,0.2-1,0.4
									c-0.6,0.3-1.1,0.7-1.5,1c-0.8,0.7-1,1.3-1,1.3c0.1,0.1,0.4-0.4,1.2-1c0.4-0.3,0.9-0.6,1.5-0.8c0.3-0.1,0.6-0.2,0.9-0.3
									c0.3-0.1,0.6-0.1,0.7,0.1c0,0.1,0,0.1,0,0.2c-0.1,0.1-0.2,0.2-0.4,0.3c-0.3,0.2-0.6,0.4-0.9,0.5c-0.6,0.3-1.1,0.5-1.6,0.6
									C235.7,426.2,235.1,426.3,235.1,426.4z"/>
							</g>
						</g>
					</g>
				</g>
				<g>
					<g>
						<g>
							<g>
								<path class="st6" d="M235.3,426.6c0.1,0,0.4-0.6,0.4-1.6c0-0.5,0-1.1-0.2-1.8c-0.1-0.3-0.2-0.7-0.4-1
									c-0.2-0.3-0.4-0.8-1.1-0.8c-0.3,0-0.6,0.2-0.7,0.5c-0.1,0.2-0.1,0.4-0.2,0.6c-0.1,0.4,0,0.8,0,1.1c0.1,0.7,0.4,1.3,0.7,1.7
									c0.7,0.8,1.3,1,1.3,1c0.1-0.1-0.5-0.4-1-1.2c-0.2-0.4-0.5-0.9-0.5-1.5c0-0.3,0-0.6,0-1c0.1-0.4,0.2-0.6,0.3-0.6
									c0.2,0,0.4,0.3,0.6,0.5c0.2,0.3,0.3,0.6,0.4,0.9c0.2,0.6,0.3,1.2,0.3,1.6C235.4,426,235.2,426.6,235.3,426.6z"/>
							</g>
						</g>
					</g>
				</g>
			</g>
			<g class="st16">
				<g>
					<g>
						<polygon points="251.3,426.9 251.3,430.6 235.6,430.6 235.6,427.2 						"/>
					</g>
				</g>
			</g>
		</g>
		<g>
			<g>
				<g>
					<path class="st14" d="M304.1,147.4l2.3,9c0,0,0.9,5-1.5,5c-2.1,0-2.3-2.7-2.3-2.7s1-5.5-1.7-5.2c-0.4,0-1.4,3.8-1.8,5.7
						c-0.2,0.7-0.1,1.4,0.3,2.1l3.9,6.9c0.7,1.3,1.8,2.3,3,3.1l1.9,1.1l0.2,4.1l10.9,0.2l-3.3-12.7l-1.4-7.8c-0.4-0.8-1.1-1.3-2-1.5
						l-1-0.1l-0.4-1c-0.2-0.6-0.8-1-1.4-1.1l-0.6-0.1l-0.9-2.2c-0.3-0.7-2.4-5.5-3.2-5.5C305.3,144.7,303.5,145.2,304.1,147.4z"/>
				</g>
			</g>
			<g>
				<g>
					<g>
						<path class="st15" d="M311.8,158.4c0,0,0-0.4-0.2-1c-0.2-0.6-0.7-1.3-1.5-1.9c-0.5-0.9-0.7-1.7-0.8-2.4c-0.1-0.6-0.1-1-0.1-1
							c0,0,0.1,0.4,0.2,1c0.2,0.6,0.4,1.5,0.8,2.3c0.2,0.1,0.4,0.3,0.5,0.4c0.2,0.2,0.3,0.3,0.4,0.5c0.2,0.4,0.4,0.7,0.5,1
							c0.1,0.3,0.1,0.6,0.1,0.8C311.9,158.3,311.9,158.4,311.8,158.4z"/>
					</g>
				</g>
			</g>
			<g>
				<g>
					<g>
						<path class="st15" d="M313.5,157.4c0,0,0-0.2-0.2-0.5c-0.1-0.3-0.5-0.6-1-0.7l-0.1,0l0-0.1c0-0.1,0-0.1-0.1-0.2
							c-0.4-1.1-0.7-2-0.6-2c0,0,0.4,0.8,0.8,1.9c0,0.1,0,0.1,0.1,0.2l-0.1-0.1c0.6,0.1,1,0.5,1.1,0.8
							C313.6,157.2,313.5,157.5,313.5,157.4z"/>
					</g>
				</g>
			</g>
		</g>
		<g>
			<g>
				<g>
					<g>
						<g>
							<g>
								<g>
									<g>
										<g>
											<path class="st14" d="M249.2,201.2L269,201l-2.2-16.9c0,0,1.4-0.3,1.4-7.6s0.4-19.8,0.4-19.8l0,0
												c-8.5-3.7-18.3-2.4-25.6,3.2l-1.1,0.8L249.2,201.2z"/>
										</g>
									</g>
								</g>
							</g>
						</g>
					</g>
				</g>
			</g>
			<g>
				<g>
					<g>
						<g>
							<g>
								<g>
									<path class="st14" d="M244.3,169.7c-0.1-0.1-5-1.5-4.9,3.5c0.2,5,5.2,3.8,5.2,3.7C244.6,176.8,244.3,169.7,244.3,169.7z"/>
								</g>
							</g>
						</g>
					</g>
				</g>
			</g>
			<g>
				<g>
					<g>
						<g>
							<g>
								<g>
									<path class="st14" d="M267.8,168.7c0.1-0.1,4.6-1.3,4.4,3.8s-5.2,3.8-5.2,3.7C267.1,176,267.8,168.7,267.8,168.7z"/>
								</g>
							</g>
						</g>
					</g>
				</g>
			</g>
			<g>
				<g>
					<path class="st6" d="M242.6,169.2c0.7,4.2,0.6,6.4,1.3,9.2c1.1,4.4,3.3,7.9,7.3,10.1c4,2.2,9.4,2.2,12.9-0.8
						c2.4-2.1,4.1-4.5,4.4-7.6s0.7-8.7,0.7-11.9c0-5.7,0.4-11.2,0.4-11.2l-16.4-3l-9.3,5.5L242.6,169.2z"/>
				</g>
			</g>
			<g>
				<g>
					<g>
						<path class="st6" d="M259.5,191c0,0.1-1.3,0.4-2.9,0.3c-1.6-0.2-2.8-0.8-2.7-0.9c0-0.1,1.3,0.3,2.8,0.4
							C258.2,191,259.5,190.9,259.5,191z"/>
					</g>
				</g>
			</g>
			<g>
				<g>
					<path class="st6" d="M243.4,176.3c-0.5-4.3-0.8-9.2-1.5-13.8c-0.3-1.7-0.9-4.2-0.7-5.9c0.1-1.7,0.3-3.5,1.1-5
						c1-1.9,2.8-3.4,5-3.8c2.1-0.4,4.4,0.2,6.1,1.6c1.2-1.8,3.5-2.7,5.6-2.2s3.8,2.3,4.1,4.5c1.2-1.1,3.1-1.3,4.5-0.5
						c1.4,0.8,2.1,2.6,1.6,4.2c1.2,0.2,2.2,1,2.7,2.1c0.5,1.1,0.4,2.4-0.3,3.4c-0.8,1.2-2.1,1.8-3,2.9c-1,1.3-1.1,3.2-0.3,4.5"/>
				</g>
				<g>
					<g>
						<path class="st13" d="M266.2,160.8c0,0,0,0.2-0.2,0.5c-0.2,0.3-0.4,0.7-1,1.1c-0.5,0.4-1.2,0.7-2.1,0.7
							c-0.9,0-1.9-0.4-2.6-1.2l0.3-0.1c-0.2,1.1-1,2.1-2.2,2.5c-1.1,0.5-2.6,0.3-3.7-0.5c-1-0.7-1.7-1.7-2.1-2.7l0.4,0
							c-0.9,1.3-2.4,2-3.7,2c-1.3,0-2.4-0.6-3.1-1.3c-0.7-0.7-1-1.4-1.1-1.9c-0.1-0.5-0.1-0.8-0.1-0.8c0,0,0.1,0.3,0.2,0.7
							c0.2,0.5,0.5,1.1,1.2,1.8c0.7,0.6,1.7,1.2,2.9,1.1c1.2,0,2.6-0.7,3.3-1.9l0.2-0.4l0.2,0.4c0.4,1,1,1.9,1.9,2.5
							c1,0.7,2.3,0.9,3.3,0.4c1-0.4,1.8-1.2,2-2.2l0.1-0.4l0.3,0.3c0.6,0.7,1.5,1.1,2.3,1.2c0.8,0.1,1.5-0.2,2-0.5
							C265.9,161.4,266.1,160.7,266.2,160.8z"/>
					</g>
				</g>
				<g>
					<g>
						<path class="st13" d="M266.1,158.8c-0.1,0,0-0.8-0.7-1.8c-0.4-0.5-0.9-1-1.7-1.2c-0.8-0.2-1.7-0.1-2.5,0.5l-0.4,0.3l0-0.5
							c0-0.5,0-1-0.2-1.4c-0.4-1.1-1.1-1.9-2-2.3c-0.9-0.4-1.8-0.4-2.6-0.2c-1.5,0.4-2.1,1.3-2.1,1.2c0,0,0.1-0.2,0.4-0.6
							c0.3-0.3,0.9-0.7,1.6-1c0.8-0.2,1.8-0.3,2.8,0.1c1,0.4,1.9,1.4,2.3,2.6c0.2,0.5,0.2,1.1,0.2,1.6l-0.4-0.2
							c0.9-0.6,2-0.7,2.9-0.5c0.9,0.2,1.5,0.8,1.9,1.4c0.4,0.6,0.5,1.1,0.5,1.4C266.2,158.6,266.2,158.8,266.1,158.8z"/>
					</g>
				</g>
				<g>
					<g>
						<path class="st13" d="M255.7,158.9c-0.1,0,0-0.3,0-0.7c0-0.4-0.2-0.9-0.5-1.5c-0.3-0.5-0.7-1-0.9-1.3
							c-0.3-0.3-0.5-0.1-0.5-0.1c0,0,0-0.1,0.1-0.2c0.1-0.1,0.4-0.1,0.6,0.1c0.2,0.2,0.4,0.4,0.6,0.6c0.2,0.2,0.4,0.5,0.6,0.8
							c0.4,0.6,0.5,1.3,0.4,1.7C255.9,158.7,255.7,158.9,255.7,158.9z"/>
					</g>
				</g>
				<g>
					<g>
						<path class="st13" d="M246,152.6c-0.1,0,0-0.4,0.3-0.9c0.2-0.3,0.4-0.6,0.7-0.8c0.4-0.2,0.8-0.4,1.3-0.3c1,0.1,1.6,0.8,2,1.2
							c0.4,0.5,0.5,0.8,0.5,0.8c-0.1,0-0.3-0.2-0.7-0.6c-0.4-0.4-1-0.9-1.8-1c-0.8-0.1-1.4,0.4-1.8,0.8
							C246.2,152.3,246,152.6,246,152.6z"/>
					</g>
				</g>
				<g>
					<g>
						<path class="st13" d="M248.5,173.9c-0.1,0.1-1.1-1.3-1.7-3.2c-0.7-1.9-0.7-3.6-0.6-3.6c0.1,0,0.4,1.6,1,3.4
							C247.9,172.4,248.7,173.8,248.5,173.9z"/>
					</g>
				</g>
				<g>
					<g>
						<path class="st13" d="M250.7,175.1c-0.1,0.1-0.7-0.9-1.2-2.3c-0.5-1.3-0.7-2.5-0.6-2.5c0.1,0,0.5,1,1,2.4
							C250.4,174,250.8,175,250.7,175.1z"/>
					</g>
				</g>
				<g>
					<g>
						<path class="st13" d="M264.5,175.4c0.1,0,0.3,2.1-0.6,4.4c-0.9,2.4-2.4,3.8-2.5,3.7c-0.1-0.1,1.2-1.6,2.1-3.8
							C264.4,177.4,264.4,175.4,264.5,175.4z"/>
					</g>
				</g>
				<g>
					<g>
						<path class="st13" d="M266.7,171.8c0.1-0.1,0.7,1.7,0.3,4c-0.4,2.2-1.6,3.7-1.7,3.6c-0.1-0.1,0.9-1.6,1.2-3.7
							C267,173.5,266.6,171.8,266.7,171.8z"/>
					</g>
				</g>
			</g>
		</g>
		<g>
			<g>
				<g>
					<polyline class="st6" points="260.4,310.1 265.2,356.5 268.7,426.4 287.1,426.4 287.6,277.6 234.8,281.4 223.8,359.5 
						233.3,427.8 253.5,427.8 248.8,362.8 260.4,310.1 					"/>
				</g>
			</g>
			<g>
				<g>
					<g>
						<path class="st13" d="M260.4,310.1c0.1,0.1-1.5,1.7-3.6,3.5c-2.1,1.9-3.8,3.3-3.9,3.2c-0.1-0.1,1.5-1.7,3.6-3.5
							C258.5,311.4,260.3,310,260.4,310.1z"/>
					</g>
				</g>
			</g>
			<g>
				<g>
					<g>
						<path class="st13" d="M260.3,309.1c-0.1,0,0-2.7,0.1-6c0.1-3.3,0.2-5.9,0.3-5.9s0.2,2.7,0.1,6
							C260.8,306.5,260.4,309.2,260.3,309.1z"/>
					</g>
				</g>
			</g>
			<g>
				<g>
					<g>
						<path class="st13" d="M266.4,291.8c0,0,0.1,0,0.3,0c0.2,0,0.5,0,0.9-0.1c0.9,0,2-0.1,3.5-0.2c3.1-0.1,7.4-0.3,12.5-0.5l0.2,0
							v0.2c0,3.9,0,8.3,0,13v0.2v0.2l-0.1,0.1c-2.8,1.1-5.6,2.2-8.1,3.3l-0.1,0l-0.1,0c-2.6-0.9-5-1.7-7.2-2.5l-0.1,0l0-0.1
							c-0.5-4-1-7.4-1.3-9.8c-0.1-1.1-0.2-2-0.3-2.7C266.4,292.1,266.4,291.8,266.4,291.8c0,0,0,0.1,0.1,0.3c0,0.2,0.1,0.4,0.1,0.7
							c0.1,0.7,0.3,1.6,0.4,2.7c0.4,2.4,0.9,5.7,1.5,9.7l-0.1-0.2c2.2,0.7,4.6,1.6,7.2,2.4h-0.1c2.6-1,5.3-2.1,8.1-3.3l-0.1,0.2
							v-0.2c0-4.7,0-9.1,0-13l0.2,0.2c-5,0.1-9.3,0.2-12.4,0.3c-1.5,0-2.7,0-3.6,0.1c-0.4,0-0.7,0-1,0
							C266.6,291.8,266.4,291.8,266.4,291.8z"/>
					</g>
				</g>
			</g>
			<g>
				<g>
					<g>
						<path class="st13" d="M239.8,292c0,0,0.1,0,0.3,0c0.2,0,0.5,0,0.8,0c0.8,0,1.8-0.1,3.2-0.1c2.8-0.1,6.7-0.2,11.4-0.3l0.2,0
							l0,0.2c-0.1,3.9-0.3,8.3-0.4,13v0.1l-0.1,0.1c-0.4,0.3-0.9,0.6-1.3,0.9c-2.3,1.5-4.6,3-6.7,4.4l-0.1,0.1l-0.1-0.1
							c-2.7-1.7-5.3-3.2-7.5-4.6l-0.1-0.1v-0.1c0.1-4,0.3-7.4,0.3-9.8c0.1-1.1,0.1-2,0.1-2.7C239.7,292.3,239.8,292,239.8,292
							c0,0,0,0.1,0,0.3c0,0.2,0,0.4,0,0.7c0,0.7,0,1.6,0,2.7c0,2.4-0.1,5.7-0.1,9.7l-0.1-0.2c2.3,1.4,4.8,2.9,7.6,4.5h-0.2
							c2.1-1.4,4.4-2.9,6.7-4.4c0.4-0.3,0.9-0.6,1.3-0.9l-0.1,0.2c0.2-4.7,0.3-9.2,0.5-13l0.2,0.2c-4.6,0-8.5,0-11.3,0.1
							c-1.3,0-2.4,0-3.2,0c-0.3,0-0.6,0-0.9,0C239.9,292,239.8,292,239.8,292z"/>
					</g>
				</g>
			</g>
			<g>
				<g>
					<g>
						<path class="st13" d="M281.9,313.1c0,0.1-1,0-2.5-0.1c-1.5-0.1-3.7-0.3-6-0.6c-2.3-0.3-4.4-0.6-6-0.9
							c-1.5-0.3-2.4-0.5-2.4-0.6s1,0,2.5,0.2c1.7,0.2,3.7,0.5,6,0.8c2.3,0.3,4.3,0.5,6,0.8C281,312.9,281.9,313,281.9,313.1z"/>
					</g>
				</g>
			</g>
			<g>
				<g>
					<g>
						<path class="st13" d="M281.5,364.8c0,0-0.1,0.3-0.4,0.6c-0.4,0.3-1,0.6-1.9,0.6c-0.9,0-1.9-0.4-2.8-1.1
							c-0.9-0.7-1.7-1.6-2.5-2.5c-1.6-1.9-2.9-3.8-3.7-5.3c-0.8-1.4-1.2-2.4-1.2-2.4c0.1,0,0.6,0.9,1.4,2.2c0.9,1.4,2.2,3.2,3.8,5.1
							c0.8,0.9,1.6,1.8,2.4,2.5c0.8,0.7,1.7,1,2.5,1.1c0.8,0,1.4-0.2,1.8-0.5C281.3,365,281.4,364.8,281.5,364.8z"/>
					</g>
				</g>
			</g>
			<g>
				<g>
					<g>
						<path class="st13" d="M245,366.5c0,0,0,0.2-0.2,0.6c-0.2,0.4-0.6,0.8-1.3,1.2c-0.6,0.4-1.5,0.7-2.5,0.7c-1,0-2.1-0.4-3.1-1
							c-2-1.2-3-3.1-3.7-4.4c-0.7-1.3-1-2.1-0.9-2.2c0.1,0,0.5,0.8,1.2,2c0.7,1.2,1.8,3,3.6,4.1c0.9,0.6,1.9,0.9,2.8,0.9
							c0.9,0,1.7-0.2,2.4-0.5C244.6,367.3,245,366.4,245,366.5z"/>
					</g>
				</g>
			</g>
			<g>
				<g>
					<g>
						<path class="st13" d="M246.2,359.5c0,0-0.5,0.4-1.5,0.9c-1,0.4-2.5,0.9-4.1,0.9c-1.7,0.1-3.2-0.2-4.2-0.6
							c-1-0.4-1.6-0.7-1.6-0.8c0-0.1,2.5,1,5.8,0.9C243.8,360.7,246.1,359.3,246.2,359.5z"/>
					</g>
				</g>
			</g>
		</g>
		<g>
			<g>
				<g>
					<g>
						<path class="st13" d="M306.3,195.6h-26.9c0,0-3.7-2.1-5.4-1.8c-1.8,0.4-3.3,2.2-3.3,2.2l3.6,29.7l8.7-6.5l32.4-3.4
							c2.8,0,5.5-1.2,7.4-3.2l0,0c2.1-2.2,3.1-5.3,2.7-8.3l-6-31.9l-12.3,0.4l-0.5,8.1L306.3,195.6z"/>
					</g>
				</g>
				<g>
					<g>
						<path class="st13" d="M232.2,203c0,0-4.3,2.4-6.5,7.6c-1.6,3.8-12.3,22.6-17.9,32.4c-2.1,3.6-1.5,8.1,1.3,11.1l0,0
							c3.4,3.6,7.5,2.2,12.5,0.6c2.2-0.7,12.3-16.2,12.3-16.2L232.2,203z"/>
					</g>
				</g>
				<g>
					<g>
						<polygon class="st13" points="236.9,270.3 230.7,217.2 232.2,203 247.9,196.3 268.2,195 287.6,197.1 283.1,251.6 288,282.3 
							233.8,284.7 						"/>
					</g>
				</g>
				<g>
					<g>
						<g>
							<path class="st6" d="M236.9,270c-0.1,0-1.6-11.8-3.3-26.4c-1.7-14.6-3-26.4-2.8-26.5c0.1,0,1.6,11.8,3.3,26.4
								C235.7,258.2,237,270,236.9,270z"/>
						</g>
					</g>
				</g>
				<g>
					<g>
						<g>
							<path class="st6" d="M287.2,209.1c0,0,0,0.2,0,0.5c0,0.4-0.1,0.8-0.1,1.4c-0.1,1.2-0.3,2.9-0.5,5c-0.4,4.3-1,10.1-1.7,16.5
								c-0.6,6.5-1.1,12.3-1.4,16.5c-0.1,2.1-0.3,3.8-0.4,5c0,0.5-0.1,1-0.1,1.4c0,0.3-0.1,0.5-0.1,0.5c0,0,0-0.2,0-0.5
								c0-0.4,0-0.8,0-1.4c0-1.2,0.1-2.9,0.2-5c0.2-4.2,0.7-10.1,1.3-16.6c0.6-6.5,1.3-12.3,1.8-16.5c0.3-2.1,0.5-3.8,0.7-5
								c0.1-0.5,0.1-1,0.2-1.4C287.2,209.2,287.2,209.1,287.2,209.1z"/>
						</g>
					</g>
				</g>
				<g>
					<g>
						<g>
							<path class="st6" d="M277.9,261.9c0,0-0.3,0.4-0.9,1c-0.3,0.3-0.6,0.7-1.1,1.2s-0.9,0.9-1.6,1.4c-0.6,0.5-1.3,1-2,1.5
								c-0.7,0.6-1.6,1-2.5,1.6c-1.8,1-3.9,1.9-6.2,2.6c-2.3,0.7-4.6,1-6.6,1.2c-1,0-2,0.1-2.9,0.1c-0.9,0-1.8-0.1-2.6-0.2
								c-0.8-0.1-1.5-0.2-2.1-0.3c-0.6-0.1-1.1-0.2-1.5-0.4c-0.8-0.2-1.3-0.4-1.3-0.4c0-0.1,1.9,0.5,5,0.8c0.8,0.1,1.6,0.1,2.5,0.1
								c0.9,0,1.9,0,2.9-0.1c2-0.2,4.3-0.6,6.5-1.2c2.3-0.7,4.3-1.6,6.1-2.5c0.9-0.5,1.7-1,2.5-1.5c0.8-0.5,1.4-1,2.1-1.5
								C276.6,263.3,277.8,261.8,277.9,261.9z"/>
						</g>
					</g>
				</g>
				<g class="st16">
					<g>
						<g>
							<path d="M249.2,271.8c-2.6-0.8-2.8-3.2-1.8-4.3c1-1.1,2.7-1.2,4.1-1c1.5,0.2,2.9,0.7,4.4,0.6c2.4-0.2,4.4-1.8,6.1-3.6
								c1.7-1.7,3.3-3.7,5.5-4.7c2.2-1,5.3-0.7,6.4,1.5c0.7,1.3,0.5,3.1-0.3,4.4c-0.8,1.3-2,2.3-3.3,3.2
								C264.3,272.1,256.4,273.6,249.2,271.8"/>
						</g>
					</g>
				</g>
				<g>
					<g>
						<g>
							<path class="st6" d="M281.3,196.6c0-0.1,2,0.7,3.5,2.8c1.5,2.1,1.7,4.3,1.5,4.2c-0.1,0-0.5-2-1.9-4
								C283,197.7,281.2,196.8,281.3,196.6z"/>
						</g>
					</g>
				</g>
			</g>
			<g>
				<g>
					<path class="st2" d="M279.4,196c0,0-0.1-0.1-0.4-0.3c-0.3-0.1-0.8-0.2-1.5-0.1c-0.6,0.1-1.4,0.5-2,1.2
						c-0.7,0.6-1.3,1.5-2.2,2.3s-2.3,1.1-3.6,1.1c-1.4,0.1-2.9-0.1-4.4-0.1c-3.1-0.1-6.5-0.1-10.1,0.2c-7.1,0.6-13.4,2.2-17.8,3.9
						c-2.2,0.8-3.9,1.7-5.1,2.2c-0.5,0.3-1,0.5-1.3,0.7c-0.3,0.2-0.5,0.2-0.5,0.2s0.1-0.1,0.4-0.3c0.3-0.2,0.8-0.4,1.3-0.7
						c1.2-0.6,2.9-1.4,5-2.3c4.3-1.7,10.7-3.4,17.8-4c3.6-0.3,7-0.3,10.1-0.2c1.5,0,3,0.2,4.4,0.1c1.4-0.1,2.6-0.4,3.6-1.1
						s1.5-1.6,2.2-2.2c0.7-0.7,1.4-1.1,2.1-1.2c0.7-0.1,1.2,0,1.5,0.1C279.3,195.9,279.4,196,279.4,196z"/>
				</g>
			</g>
			<g>
				<g>
					<path class="st2" d="M285.5,206.9c0,0-0.2-0.1-0.5-0.1c-0.4-0.1-0.9-0.1-1.6-0.1c-0.7,0.1-1.5,0.3-2.4,0.6
						c-0.9,0.4-1.9,0.9-3,1.5c-1.1,0.6-2.3,1.2-3.7,1.6c-1.4,0.4-3,0.6-4.6,0.7c-3.3,0.2-6.9,0.3-10.7,0.5
						c-7.6,0.5-14.4,1.4-19.3,2.2c-2.5,0.4-4.4,0.8-5.8,1c-0.6,0.1-1.2,0.2-1.6,0.3c-0.4,0.1-0.6,0.1-0.6,0.1s0.2-0.1,0.5-0.1
						c0.4-0.1,0.9-0.2,1.6-0.3c1.4-0.3,3.3-0.7,5.8-1.1c4.9-0.8,11.7-1.8,19.3-2.3c3.8-0.3,7.4-0.3,10.7-0.5
						c1.6-0.1,3.2-0.3,4.6-0.7c1.4-0.4,2.6-1,3.7-1.6c1.1-0.6,2.1-1.2,3-1.5c0.9-0.4,1.8-0.6,2.5-0.6c0.7-0.1,1.2,0,1.6,0.1
						C285.3,206.8,285.5,206.9,285.5,206.9z"/>
				</g>
			</g>
			<g>
				<g>
					<path class="st2" d="M285.6,221.9c0,0-0.7,0.3-2,0.8c-1.3,0.5-3.1,1.2-5.5,1.8c-4.7,1.4-11.4,2.5-18.8,2.8
						c-7.4,0.3-14.2-0.1-19-0.4c-2.4-0.2-4.3-0.3-5.7-0.4c-0.6-0.1-1.2-0.1-1.6-0.1c-0.4,0-0.5-0.1-0.5-0.1s0.2,0,0.5,0
						c0.4,0,0.9,0.1,1.6,0.1c1.4,0.1,3.4,0.2,5.7,0.4c4.9,0.3,11.6,0.7,19,0.4c7.4-0.3,14.1-1.4,18.8-2.7c2.3-0.6,4.2-1.3,5.5-1.8
						c0.6-0.2,1.1-0.4,1.5-0.6C285.5,221.9,285.6,221.9,285.6,221.9z"/>
				</g>
			</g>
			<g>
				<g>
					<path class="st2" d="M283.6,239.2c0,0-0.6,0.3-1.8,0.7c-1.2,0.4-2.9,0.9-5.2,1.3c-2.2,0.4-4.9,0.7-7.9,0.8
						c-3,0.1-6.2,0-9.7-0.2c-6.8-0.4-13-0.9-17.5-0.8c-2.2,0.1-4.1,0.2-5.3,0.4c-0.6,0.1-1.1,0.1-1.4,0.2c-0.3,0-0.5,0.1-0.5,0.1
						s2.7-0.6,7.2-0.7c4.5-0.2,10.7,0.3,17.6,0.7c3.4,0.2,6.7,0.3,9.7,0.2c3-0.1,5.6-0.4,7.8-0.8c2.2-0.4,4-0.9,5.2-1.3
						c0.6-0.2,1.1-0.4,1.4-0.5C283.4,239.2,283.6,239.2,283.6,239.2z"/>
				</g>
			</g>
			<g>
				<g>
					<path class="st2" d="M281.9,252.5c0,0-2.5,0.8-6.6,1.8c-2.1,0.5-4.5,1-7.3,1.4c-2.8,0.4-5.8,0.7-9,1c-3.2,0.2-6.3,0.2-9.1,0.1
						c-2.8-0.1-5.3-0.3-7.4-0.5c-4.2-0.4-6.8-1-6.8-1s0.2,0,0.5,0.1c0.4,0.1,0.8,0.1,1.3,0.2c1.2,0.2,2.9,0.4,5,0.6
						c2.1,0.2,4.6,0.4,7.4,0.4c2.8,0.1,5.9,0,9.1-0.2c3.2-0.2,6.3-0.5,9-0.9c2.8-0.4,5.2-0.9,7.3-1.3s3.7-0.9,4.9-1.2
						c0.5-0.1,1-0.3,1.3-0.4C281.7,252.6,281.9,252.5,281.9,252.5z"/>
				</g>
			</g>
			<g>
				<g>
					<path class="st2" d="M283.8,257.4c0,0-0.2,0.1-0.5,0.2c-0.4,0.1-0.8,0.3-1.3,0.5c-1.1,0.4-2.8,1.1-4.8,2c-2,0.9-4.4,2-7,3.1
						c-2.7,1.1-5.7,2.1-9,2.7c-6.6,1.3-12.7,1.1-17,0.9c-2.2-0.1-4-0.2-5.2-0.3c-0.6,0-1-0.1-1.4-0.1c-0.3,0-0.5,0-0.5,0
						s0.2,0,0.5,0c0.4,0,0.8,0,1.4,0.1c1.3,0.1,3,0.1,5.2,0.2c4.4,0.1,10.4,0.3,17-1c3.3-0.6,6.3-1.6,9-2.7c2.7-1.1,5-2.2,7.1-3.1
						c2-0.9,3.7-1.5,4.8-1.9C283.1,257.6,283.8,257.4,283.8,257.4z"/>
				</g>
			</g>
			<g>
				<g>
					<path class="st2" d="M286.5,272c0,0-0.6,0.4-1.8,1.1c-1.1,0.7-2.9,1.5-5.1,2.3c-4.4,1.7-10.9,2.9-18.1,3.1
						c-7.2,0.1-13.7-0.4-18.4-0.6c-2.4-0.1-4.3-0.2-5.6-0.2c-0.6,0-1.1,0-1.5,0c-0.3,0-0.5,0-0.5,0s0.2,0,0.5,0c0.4,0,0.9,0,1.5,0
						c1.3,0,3.2,0.1,5.6,0.1c4.7,0.2,11.2,0.7,18.4,0.6c7.2-0.1,13.7-1.3,18.1-3c2.2-0.8,3.9-1.6,5.1-2.3c0.6-0.3,1-0.6,1.3-0.7
						C286.4,272.1,286.5,272,286.5,272z"/>
				</g>
			</g>
			<g>
				<g>
					<path class="st2" d="M294.7,218.3c0,0,0-0.1,0-0.2c0.1-0.2,0.1-0.4,0.2-0.6c0.2-0.5,0.3-1.3,0.6-2.3c0.4-2,0.8-4.7,0.7-7.8
						c-0.1-3.1-0.5-5.8-1-7.8c-0.2-1-0.4-1.8-0.6-2.3c-0.1-0.2-0.1-0.4-0.2-0.6c0-0.1-0.1-0.2-0.1-0.2s0,0.1,0.1,0.2
						c0.1,0.2,0.1,0.4,0.2,0.6c0.2,0.5,0.4,1.3,0.7,2.3c0.5,1.9,1,4.7,1,7.8c0,3.1-0.4,5.8-0.8,7.8c-0.2,1-0.4,1.8-0.6,2.3
						c-0.1,0.2-0.1,0.4-0.2,0.6C294.7,218.2,294.7,218.3,294.7,218.3z"/>
				</g>
			</g>
			<g>
				<g>
					<path class="st2" d="M307.7,215.1c0,0,0-0.1,0-0.2c0-0.2,0-0.4,0-0.6c0-0.5,0-1.2,0-2.1c0-1.8-0.2-4.3-0.8-6.9
						c-0.6-2.6-1.5-5-2.3-6.6c-0.4-0.8-0.7-1.5-1-1.9c-0.1-0.2-0.2-0.4-0.3-0.5c-0.1-0.1-0.1-0.2-0.1-0.2c0,0,0,0.1,0.1,0.2
						c0.1,0.2,0.2,0.3,0.3,0.5c0.3,0.4,0.6,1.1,1,1.9c0.8,1.6,1.7,3.9,2.3,6.6c0.6,2.7,0.8,5.1,0.8,6.9c0,0.9,0,1.6-0.1,2.1
						c0,0.2,0,0.4-0.1,0.6C307.8,215,307.7,215.1,307.7,215.1z"/>
				</g>
			</g>
			<g>
				<g>
					<path class="st2" d="M325.4,208.9c0,0-0.1-0.1-0.2-0.2c-0.1-0.2-0.3-0.3-0.4-0.5c-0.4-0.5-1-1.1-1.7-1.9
						c-1.5-1.6-3.6-3.6-6.3-5.5c-2.7-1.9-5.3-3.3-7.2-4.2c-1-0.4-1.8-0.8-2.3-1c-0.2-0.1-0.4-0.2-0.6-0.3c-0.1-0.1-0.2-0.1-0.2-0.1
						c0,0,0.1,0,0.2,0.1c0.2,0.1,0.4,0.1,0.7,0.2c0.6,0.2,1.4,0.5,2.4,0.9c2,0.8,4.6,2.2,7.3,4.1c2.7,1.9,4.8,4,6.3,5.6
						c0.7,0.8,1.3,1.5,1.6,1.9c0.2,0.2,0.3,0.4,0.4,0.5C325.3,208.9,325.4,208.9,325.4,208.9z"/>
				</g>
			</g>
			<g>
				<g>
					<path class="st2" d="M321.4,184c0,0-0.2,0-0.6,0c-0.5,0-1,0-1.5,0c-1.3,0-3.1,0-5,0c-2,0-3.7,0.1-5,0.2c-0.5,0-1.1,0.1-1.5,0.1
						c-0.4,0-0.6,0-0.6,0s0.2,0,0.6-0.1c0.4,0,0.9-0.1,1.5-0.1c1.3-0.1,3.1-0.2,5-0.2c2,0,3.7,0,5,0.1c0.6,0,1.2,0.1,1.5,0.1
						C321.2,184,321.4,184,321.4,184z"/>
				</g>
			</g>
			<g>
				<g>
					<path class="st2" d="M221.7,218.9c0,0,0.1,0.1,0.3,0.4c0.2,0.2,0.5,0.6,0.9,1c0.8,0.8,1.9,1.8,3.3,2.7c1.4,1,2.7,1.7,3.7,2.2
						c0.4,0.2,0.8,0.4,1.1,0.6c0.3,0.1,0.4,0.2,0.4,0.2c0,0-0.2-0.1-0.4-0.2c-0.3-0.1-0.7-0.3-1.2-0.6c-1-0.5-2.3-1.2-3.7-2.2
						c-1.4-1-2.5-2-3.3-2.8c-0.4-0.4-0.7-0.7-0.9-1C221.7,219.1,221.6,219,221.7,218.9z"/>
				</g>
			</g>
			<g>
				<g>
					<path class="st2" d="M225.4,211.9c0,0,0.2,0.3,0.6,0.7c0.4,0.4,1,0.9,1.8,1.4c0.7,0.5,1.4,0.9,1.9,1.2c0.5,0.3,0.8,0.4,0.8,0.4
						c0,0.1-1.4-0.5-2.9-1.5c-0.7-0.5-1.4-1-1.8-1.5C225.5,212.3,225.3,211.9,225.4,211.9z"/>
				</g>
			</g>
			<g>
				<g>
					<path class="st2" d="M231.6,241.9c0,0-0.1,0-0.2-0.1c-0.2-0.1-0.3-0.2-0.5-0.3c-0.5-0.2-1.1-0.6-1.9-1.1
						c-1.6-1-3.7-2.6-5.7-4.6c-2.1-2-3.7-4-4.8-5.5c-0.5-0.8-0.9-1.4-1.2-1.9c-0.1-0.2-0.2-0.4-0.3-0.5c-0.1-0.1-0.1-0.2-0.1-0.2
						c0,0,0,0.1,0.1,0.2c0.1,0.2,0.2,0.3,0.3,0.5c0.3,0.4,0.7,1.1,1.2,1.8c1.1,1.5,2.7,3.5,4.8,5.5c2.1,2,4.1,3.5,5.7,4.6
						c0.8,0.5,1.4,0.9,1.9,1.2c0.2,0.1,0.4,0.2,0.5,0.3C231.6,241.9,231.6,241.9,231.6,241.9z"/>
				</g>
			</g>
		</g>
		<g>
			<g>
				<path class="st6" d="M207.2,251c0,0-0.1-0.4-0.2-1s-0.1-1.6-0.1-2.8c0.1-2.3,0.9-5.6,2.9-8.7c1.9-3,3.6-5.8,4.9-7.7
					c0.6-0.9,1.1-1.7,1.5-2.3c0.4-0.5,0.6-0.8,0.6-0.8c0,0-0.1,0.3-0.5,0.9c-0.4,0.7-0.9,1.4-1.4,2.4c-1.2,2-2.9,4.8-4.8,7.8
					c-2,3-2.8,6.1-3,8.4C207.1,249.6,207.3,251,207.2,251z"/>
			</g>
		</g>
		<g>
			<g>
				<path class="st2" d="M222.6,254.6c0,0-1.2,0-3-0.4c-1.8-0.5-4.3-1.6-6.4-3.7c-2.1-2.1-3.2-4.6-3.7-6.4c-0.5-1.8-0.4-3-0.4-3
					c0,0,0,0.1,0,0.2c0,0.1,0,0.3,0.1,0.6c0.1,0.5,0.2,1.3,0.5,2.2c0.5,1.8,1.6,4.3,3.7,6.3c2,2,4.5,3.2,6.3,3.7
					c0.9,0.3,1.7,0.4,2.2,0.5c0.3,0,0.5,0.1,0.6,0.1C222.5,254.6,222.6,254.6,222.6,254.6z"/>
			</g>
		</g>
		<g>
			<g>
				<path class="st2" d="M213.7,224.5c0,0-0.1,0-0.1,0.1c-0.1,0.1-0.3,0.2-0.5,0.3c-0.4,0.2-1,0.6-1.6,1.1c-1.4,1-3.1,2.5-4.7,4.4
					c-1.6,2-2.7,4-3.3,5.6c-0.3,0.8-0.6,1.4-0.7,1.8c-0.1,0.2-0.1,0.3-0.2,0.5c0,0.1-0.1,0.2-0.1,0.2c0,0,0-0.1,0-0.2
					c0-0.2,0.1-0.3,0.1-0.5c0.1-0.4,0.3-1.1,0.6-1.9c0.6-1.5,1.7-3.6,3.3-5.6c1.6-2,3.4-3.5,4.8-4.4c0.7-0.5,1.3-0.8,1.7-1
					c0.2-0.1,0.3-0.2,0.5-0.2C213.7,224.6,213.7,224.5,213.7,224.5z"/>
			</g>
		</g>
		<g>
			<g>
				<path class="st2" d="M208.8,218c0,0-0.2,0.1-0.5,0.2c-0.3,0.1-0.8,0.3-1.4,0.5c-1.1,0.5-2.6,1.3-4,2.4c-1.4,1.2-2.5,2.5-3.3,3.4
					c-0.4,0.5-0.7,0.9-0.9,1.1c-0.2,0.3-0.3,0.4-0.3,0.4c0,0,0.1-0.2,0.3-0.5c0.2-0.3,0.5-0.7,0.8-1.2c0.7-1,1.8-2.3,3.3-3.5
					c1.4-1.2,3-2,4.1-2.4c0.6-0.2,1-0.4,1.4-0.4C208.6,218.1,208.8,218,208.8,218z"/>
			</g>
		</g>
	</g>
</g>
</svg>
